0
SECTION
2
ENTITIES
0
POLYLINE
8
0
66
1
70
1
10
0
20
0
30
0
0
VERTEX
8
0
10
1010
20
1010
30
0
0
VERTEX
8
0
10
1010
20
1020
30
0
0
VERTEX
8
0
10
1020
20
1020
30
0
0
VERTEX
8
0
10
1020
20
1010
30
0
0
SEQEND
0
POLYLINE
8
0
66
1
70
1
10
0
20
0
30
0
0
VERTEX
8
0
10
1020
20
1010
30
0
0
VERTEX
8
0
10
1020
20
1020
30
0
0
VERTEX
8
0
10
1030
20
1020
30
0
0
VERTEX
8
0
10
1030
20
1010
30
0
0
SEQEND
0
POLYLINE
8
0
66
1
70
1
10
0
20
0
30
0
0
VERTEX
8
0
10
1030
20
1010
30
0
0
VERTEX
8
0
10
1030
20
1020
30
0
0
VERTEX
8
0
10
1040
20
1020
30
0
0
VERTEX
8
0
10
1040
20
1010
30
0
0
SEQEND
0
POLYLINE
8
0
66
1
70
1
10
0
20
0
30
0
0
VERTEX
8
0
10
1040
20
1010
30
0
0
VERTEX
8
0
10
1040
20
1020
30
0
0
VERTEX
8
0
10
1050
20
1020
30
0
0
VERTEX
8
0
10
1050
20
1010
30
0
0
SEQEND
0
POLYLINE
8
0
66
1
70
1
10
0
20
0
30
0
0
VERTEX
8
0
10
1050
20
1010
30
0
0
VERTEX
8
0
10
1050
20
1020
30
0
0
VERTEX
8
0
10
1060
20
1020
30
0
0
VERTEX
8
0
10
1060
20
1010
30
0
0
SEQEND
0
POLYLINE
8
0
66
1
70
1
10
0
20
0
30
0
0
VERTEX
8
0
10
1060
20
1010
30
0
0
VERTEX
8
0
10
1060
20
1020
30
0
0
VERTEX
8
0
10
1070
20
1020
30
0
0
VERTEX
8
0
10
1070
20
1010
30
0
0
SEQEND
0
POLYLINE
8
0
66
1
70
1
10
0
20
0
30
0
0
VERTEX
8
0
10
1070
20
1010
30
0
0
VERTEX
8
0
10
1070
20
1020
30
0
0
VERTEX
8
0
10
1080
20
1020
30
0
0
VERTEX
8
0
10
1080
20
1010
30
0
0
SEQEND
0
POLYLINE
8
0
66
1
70
1
10
0
20
0
30
0
0
VERTEX
8
0
10
1090
20
1010
30
0
0
VERTEX
8
0
10
1090
20
1020
30
0
0
VERTEX
8
0
10
1100
20
1020
30
0
0
VERTEX
8
0
10
1100
20
1010
30
0
0
SEQEND
0
POLYLINE
8
0
66
1
70
1
10
0
20
0
30
0
0
VERTEX
8
0
10
1120
20
1010
30
0
0
VERTEX
8
0
10
1120
20
1020
30
0
0
VERTEX
8
0
10
1130
20
1020
30
0
0
VERTEX
8
0
10
1130
20
1010
30
0
0
SEQEND
0
POLYLINE
8
0
66
1
70
1
10
0
20
0
30
0
0
VERTEX
8
0
10
1130
20
1010
30
0
0
VERTEX
8
0
10
1130
20
1020
30
0
0
VERTEX
8
0
10
1140
20
1020
30
0
0
VERTEX
8
0
10
1140
20
1010
30
0
0
SEQEND
0
POLYLINE
8
0
66
1
70
1
10
0
20
0
30
0
0
VERTEX
8
0
10
1150
20
1010
30
0
0
VERTEX
8
0
10
1150
20
1020
30
0
0
VERTEX
8
0
10
1160
20
1020
30
0
0
VERTEX
8
0
10
1160
20
1010
30
0
0
SEQEND
0
POLYLINE
8
0
66
1
70
1
10
0
20
0
30
0
0
VERTEX
8
0
10
1190
20
1010
30
0
0
VERTEX
8
0
10
1190
20
1020
30
0
0
VERTEX
8
0
10
1200
20
1020
30
0
0
VERTEX
8
0
10
1200
20
1010
30
0
0
SEQEND
0
POLYLINE
8
0
66
1
70
1
10
0
20
0
30
0
0
VERTEX
8
0
10
1200
20
1010
30
0
0
VERTEX
8
0
10
1200
20
1020
30
0
0
VERTEX
8
0
10
1210
20
1020
30
0
0
VERTEX
8
0
10
1210
20
1010
30
0
0
SEQEND
0
POLYLINE
8
0
66
1
70
1
10
0
20
0
30
0
0
VERTEX
8
0
10
1210
20
1010
30
0
0
VERTEX
8
0
10
1210
20
1020
30
0
0
VERTEX
8
0
10
1220
20
1020
30
0
0
VERTEX
8
0
10
1220
20
1010
30
0
0
SEQEND
0
POLYLINE
8
0
66
1
70
1
10
0
20
0
30
0
0
VERTEX
8
0
10
1220
20
1010
30
0
0
VERTEX
8
0
10
1220
20
1020
30
0
0
VERTEX
8
0
10
1230
20
1020
30
0
0
VERTEX
8
0
10
1230
20
1010
30
0
0
SEQEND
0
POLYLINE
8
0
66
1
70
1
10
0
20
0
30
0
0
VERTEX
8
0
10
1230
20
1010
30
0
0
VERTEX
8
0
10
1230
20
1020
30
0
0
VERTEX
8
0
10
1240
20
1020
30
0
0
VERTEX
8
0
10
1240
20
1010
30
0
0
SEQEND
0
POLYLINE
8
0
66
1
70
1
10
0
20
0
30
0
0
VERTEX
8
0
10
1240
20
1010
30
0
0
VERTEX
8
0
10
1240
20
1020
30
0
0
VERTEX
8
0
10
1250
20
1020
30
0
0
VERTEX
8
0
10
1250
20
1010
30
0
0
SEQEND
0
POLYLINE
8
0
66
1
70
1
10
0
20
0
30
0
0
VERTEX
8
0
10
1250
20
1010
30
0
0
VERTEX
8
0
10
1250
20
1020
30
0
0
VERTEX
8
0
10
1260
20
1020
30
0
0
VERTEX
8
0
10
1260
20
1010
30
0
0
SEQEND
0
POLYLINE
8
0
66
1
70
1
10
0
20
0
30
0
0
VERTEX
8
0
10
1010
20
1020
30
0
0
VERTEX
8
0
10
1010
20
1030
30
0
0
VERTEX
8
0
10
1020
20
1030
30
0
0
VERTEX
8
0
10
1020
20
1020
30
0
0
SEQEND
0
POLYLINE
8
0
66
1
70
1
10
0
20
0
30
0
0
VERTEX
8
0
10
1070
20
1020
30
0
0
VERTEX
8
0
10
1070
20
1030
30
0
0
VERTEX
8
0
10
1080
20
1030
30
0
0
VERTEX
8
0
10
1080
20
1020
30
0
0
SEQEND
0
POLYLINE
8
0
66
1
70
1
10
0
20
0
30
0
0
VERTEX
8
0
10
1100
20
1020
30
0
0
VERTEX
8
0
10
1100
20
1030
30
0
0
VERTEX
8
0
10
1110
20
1030
30
0
0
VERTEX
8
0
10
1110
20
1020
30
0
0
SEQEND
0
POLYLINE
8
0
66
1
70
1
10
0
20
0
30
0
0
VERTEX
8
0
10
1110
20
1020
30
0
0
VERTEX
8
0
10
1110
20
1030
30
0
0
VERTEX
8
0
10
1120
20
1030
30
0
0
VERTEX
8
0
10
1120
20
1020
30
0
0
SEQEND
0
POLYLINE
8
0
66
1
70
1
10
0
20
0
30
0
0
VERTEX
8
0
10
1170
20
1020
30
0
0
VERTEX
8
0
10
1170
20
1030
30
0
0
VERTEX
8
0
10
1180
20
1030
30
0
0
VERTEX
8
0
10
1180
20
1020
30
0
0
SEQEND
0
POLYLINE
8
0
66
1
70
1
10
0
20
0
30
0
0
VERTEX
8
0
10
1190
20
1020
30
0
0
VERTEX
8
0
10
1190
20
1030
30
0
0
VERTEX
8
0
10
1200
20
1030
30
0
0
VERTEX
8
0
10
1200
20
1020
30
0
0
SEQEND
0
POLYLINE
8
0
66
1
70
1
10
0
20
0
30
0
0
VERTEX
8
0
10
1250
20
1020
30
0
0
VERTEX
8
0
10
1250
20
1030
30
0
0
VERTEX
8
0
10
1260
20
1030
30
0
0
VERTEX
8
0
10
1260
20
1020
30
0
0
SEQEND
0
POLYLINE
8
0
66
1
70
1
10
0
20
0
30
0
0
VERTEX
8
0
10
1010
20
1030
30
0
0
VERTEX
8
0
10
1010
20
1040
30
0
0
VERTEX
8
0
10
1020
20
1040
30
0
0
VERTEX
8
0
10
1020
20
1030
30
0
0
SEQEND
0
POLYLINE
8
0
66
1
70
1
10
0
20
0
30
0
0
VERTEX
8
0
10
1030
20
1030
30
0
0
VERTEX
8
0
10
1030
20
1040
30
0
0
VERTEX
8
0
10
1040
20
1040
30
0
0
VERTEX
8
0
10
1040
20
1030
30
0
0
SEQEND
0
POLYLINE
8
0
66
1
70
1
10
0
20
0
30
0
0
VERTEX
8
0
10
1040
20
1030
30
0
0
VERTEX
8
0
10
1040
20
1040
30
0
0
VERTEX
8
0
10
1050
20
1040
30
0
0
VERTEX
8
0
10
1050
20
1030
30
0
0
SEQEND
0
POLYLINE
8
0
66
1
70
1
10
0
20
0
30
0
0
VERTEX
8
0
10
1050
20
1030
30
0
0
VERTEX
8
0
10
1050
20
1040
30
0
0
VERTEX
8
0
10
1060
20
1040
30
0
0
VERTEX
8
0
10
1060
20
1030
30
0
0
SEQEND
0
POLYLINE
8
0
66
1
70
1
10
0
20
0
30
0
0
VERTEX
8
0
10
1070
20
1030
30
0
0
VERTEX
8
0
10
1070
20
1040
30
0
0
VERTEX
8
0
10
1080
20
1040
30
0
0
VERTEX
8
0
10
1080
20
1030
30
0
0
SEQEND
0
POLYLINE
8
0
66
1
70
1
10
0
20
0
30
0
0
VERTEX
8
0
10
1110
20
1030
30
0
0
VERTEX
8
0
10
1110
20
1040
30
0
0
VERTEX
8
0
10
1120
20
1040
30
0
0
VERTEX
8
0
10
1120
20
1030
30
0
0
SEQEND
0
POLYLINE
8
0
66
1
70
1
10
0
20
0
30
0
0
VERTEX
8
0
10
1130
20
1030
30
0
0
VERTEX
8
0
10
1130
20
1040
30
0
0
VERTEX
8
0
10
1140
20
1040
30
0
0
VERTEX
8
0
10
1140
20
1030
30
0
0
SEQEND
0
POLYLINE
8
0
66
1
70
1
10
0
20
0
30
0
0
VERTEX
8
0
10
1140
20
1030
30
0
0
VERTEX
8
0
10
1140
20
1040
30
0
0
VERTEX
8
0
10
1150
20
1040
30
0
0
VERTEX
8
0
10
1150
20
1030
30
0
0
SEQEND
0
POLYLINE
8
0
66
1
70
1
10
0
20
0
30
0
0
VERTEX
8
0
10
1150
20
1030
30
0
0
VERTEX
8
0
10
1150
20
1040
30
0
0
VERTEX
8
0
10
1160
20
1040
30
0
0
VERTEX
8
0
10
1160
20
1030
30
0
0
SEQEND
0
POLYLINE
8
0
66
1
70
1
10
0
20
0
30
0
0
VERTEX
8
0
10
1170
20
1030
30
0
0
VERTEX
8
0
10
1170
20
1040
30
0
0
VERTEX
8
0
10
1180
20
1040
30
0
0
VERTEX
8
0
10
1180
20
1030
30
0
0
SEQEND
0
POLYLINE
8
0
66
1
70
1
10
0
20
0
30
0
0
VERTEX
8
0
10
1190
20
1030
30
0
0
VERTEX
8
0
10
1190
20
1040
30
0
0
VERTEX
8
0
10
1200
20
1040
30
0
0
VERTEX
8
0
10
1200
20
1030
30
0
0
SEQEND
0
POLYLINE
8
0
66
1
70
1
10
0
20
0
30
0
0
VERTEX
8
0
10
1210
20
1030
30
0
0
VERTEX
8
0
10
1210
20
1040
30
0
0
VERTEX
8
0
10
1220
20
1040
30
0
0
VERTEX
8
0
10
1220
20
1030
30
0
0
SEQEND
0
POLYLINE
8
0
66
1
70
1
10
0
20
0
30
0
0
VERTEX
8
0
10
1220
20
1030
30
0
0
VERTEX
8
0
10
1220
20
1040
30
0
0
VERTEX
8
0
10
1230
20
1040
30
0
0
VERTEX
8
0
10
1230
20
1030
30
0
0
SEQEND
0
POLYLINE
8
0
66
1
70
1
10
0
20
0
30
0
0
VERTEX
8
0
10
1230
20
1030
30
0
0
VERTEX
8
0
10
1230
20
1040
30
0
0
VERTEX
8
0
10
1240
20
1040
30
0
0
VERTEX
8
0
10
1240
20
1030
30
0
0
SEQEND
0
POLYLINE
8
0
66
1
70
1
10
0
20
0
30
0
0
VERTEX
8
0
10
1250
20
1030
30
0
0
VERTEX
8
0
10
1250
20
1040
30
0
0
VERTEX
8
0
10
1260
20
1040
30
0
0
VERTEX
8
0
10
1260
20
1030
30
0
0
SEQEND
0
POLYLINE
8
0
66
1
70
1
10
0
20
0
30
0
0
VERTEX
8
0
10
1010
20
1040
30
0
0
VERTEX
8
0
10
1010
20
1050
30
0
0
VERTEX
8
0
10
1020
20
1050
30
0
0
VERTEX
8
0
10
1020
20
1040
30
0
0
SEQEND
0
POLYLINE
8
0
66
1
70
1
10
0
20
0
30
0
0
VERTEX
8
0
10
1030
20
1040
30
0
0
VERTEX
8
0
10
1030
20
1050
30
0
0
VERTEX
8
0
10
1040
20
1050
30
0
0
VERTEX
8
0
10
1040
20
1040
30
0
0
SEQEND
0
POLYLINE
8
0
66
1
70
1
10
0
20
0
30
0
0
VERTEX
8
0
10
1040
20
1040
30
0
0
VERTEX
8
0
10
1040
20
1050
30
0
0
VERTEX
8
0
10
1050
20
1050
30
0
0
VERTEX
8
0
10
1050
20
1040
30
0
0
SEQEND
0
POLYLINE
8
0
66
1
70
1
10
0
20
0
30
0
0
VERTEX
8
0
10
1050
20
1040
30
0
0
VERTEX
8
0
10
1050
20
1050
30
0
0
VERTEX
8
0
10
1060
20
1050
30
0
0
VERTEX
8
0
10
1060
20
1040
30
0
0
SEQEND
0
POLYLINE
8
0
66
1
70
1
10
0
20
0
30
0
0
VERTEX
8
0
10
1070
20
1040
30
0
0
VERTEX
8
0
10
1070
20
1050
30
0
0
VERTEX
8
0
10
1080
20
1050
30
0
0
VERTEX
8
0
10
1080
20
1040
30
0
0
SEQEND
0
POLYLINE
8
0
66
1
70
1
10
0
20
0
30
0
0
VERTEX
8
0
10
1130
20
1040
30
0
0
VERTEX
8
0
10
1130
20
1050
30
0
0
VERTEX
8
0
10
1140
20
1050
30
0
0
VERTEX
8
0
10
1140
20
1040
30
0
0
SEQEND
0
POLYLINE
8
0
66
1
70
1
10
0
20
0
30
0
0
VERTEX
8
0
10
1140
20
1040
30
0
0
VERTEX
8
0
10
1140
20
1050
30
0
0
VERTEX
8
0
10
1150
20
1050
30
0
0
VERTEX
8
0
10
1150
20
1040
30
0
0
SEQEND
0
POLYLINE
8
0
66
1
70
1
10
0
20
0
30
0
0
VERTEX
8
0
10
1170
20
1040
30
0
0
VERTEX
8
0
10
1170
20
1050
30
0
0
VERTEX
8
0
10
1180
20
1050
30
0
0
VERTEX
8
0
10
1180
20
1040
30
0
0
SEQEND
0
POLYLINE
8
0
66
1
70
1
10
0
20
0
30
0
0
VERTEX
8
0
10
1190
20
1040
30
0
0
VERTEX
8
0
10
1190
20
1050
30
0
0
VERTEX
8
0
10
1200
20
1050
30
0
0
VERTEX
8
0
10
1200
20
1040
30
0
0
SEQEND
0
POLYLINE
8
0
66
1
70
1
10
0
20
0
30
0
0
VERTEX
8
0
10
1210
20
1040
30
0
0
VERTEX
8
0
10
1210
20
1050
30
0
0
VERTEX
8
0
10
1220
20
1050
30
0
0
VERTEX
8
0
10
1220
20
1040
30
0
0
SEQEND
0
POLYLINE
8
0
66
1
70
1
10
0
20
0
30
0
0
VERTEX
8
0
10
1220
20
1040
30
0
0
VERTEX
8
0
10
1220
20
1050
30
0
0
VERTEX
8
0
10
1230
20
1050
30
0
0
VERTEX
8
0
10
1230
20
1040
30
0
0
SEQEND
0
POLYLINE
8
0
66
1
70
1
10
0
20
0
30
0
0
VERTEX
8
0
10
1230
20
1040
30
0
0
VERTEX
8
0
10
1230
20
1050
30
0
0
VERTEX
8
0
10
1240
20
1050
30
0
0
VERTEX
8
0
10
1240
20
1040
30
0
0
SEQEND
0
POLYLINE
8
0
66
1
70
1
10
0
20
0
30
0
0
VERTEX
8
0
10
1250
20
1040
30
0
0
VERTEX
8
0
10
1250
20
1050
30
0
0
VERTEX
8
0
10
1260
20
1050
30
0
0
VERTEX
8
0
10
1260
20
1040
30
0
0
SEQEND
0
POLYLINE
8
0
66
1
70
1
10
0
20
0
30
0
0
VERTEX
8
0
10
1010
20
1050
30
0
0
VERTEX
8
0
10
1010
20
1060
30
0
0
VERTEX
8
0
10
1020
20
1060
30
0
0
VERTEX
8
0
10
1020
20
1050
30
0
0
SEQEND
0
POLYLINE
8
0
66
1
70
1
10
0
20
0
30
0
0
VERTEX
8
0
10
1030
20
1050
30
0
0
VERTEX
8
0
10
1030
20
1060
30
0
0
VERTEX
8
0
10
1040
20
1060
30
0
0
VERTEX
8
0
10
1040
20
1050
30
0
0
SEQEND
0
POLYLINE
8
0
66
1
70
1
10
0
20
0
30
0
0
VERTEX
8
0
10
1040
20
1050
30
0
0
VERTEX
8
0
10
1040
20
1060
30
0
0
VERTEX
8
0
10
1050
20
1060
30
0
0
VERTEX
8
0
10
1050
20
1050
30
0
0
SEQEND
0
POLYLINE
8
0
66
1
70
1
10
0
20
0
30
0
0
VERTEX
8
0
10
1050
20
1050
30
0
0
VERTEX
8
0
10
1050
20
1060
30
0
0
VERTEX
8
0
10
1060
20
1060
30
0
0
VERTEX
8
0
10
1060
20
1050
30
0
0
SEQEND
0
POLYLINE
8
0
66
1
70
1
10
0
20
0
30
0
0
VERTEX
8
0
10
1070
20
1050
30
0
0
VERTEX
8
0
10
1070
20
1060
30
0
0
VERTEX
8
0
10
1080
20
1060
30
0
0
VERTEX
8
0
10
1080
20
1050
30
0
0
SEQEND
0
POLYLINE
8
0
66
1
70
1
10
0
20
0
30
0
0
VERTEX
8
0
10
1100
20
1050
30
0
0
VERTEX
8
0
10
1100
20
1060
30
0
0
VERTEX
8
0
10
1110
20
1060
30
0
0
VERTEX
8
0
10
1110
20
1050
30
0
0
SEQEND
0
POLYLINE
8
0
66
1
70
1
10
0
20
0
30
0
0
VERTEX
8
0
10
1120
20
1050
30
0
0
VERTEX
8
0
10
1120
20
1060
30
0
0
VERTEX
8
0
10
1130
20
1060
30
0
0
VERTEX
8
0
10
1130
20
1050
30
0
0
SEQEND
0
POLYLINE
8
0
66
1
70
1
10
0
20
0
30
0
0
VERTEX
8
0
10
1140
20
1050
30
0
0
VERTEX
8
0
10
1140
20
1060
30
0
0
VERTEX
8
0
10
1150
20
1060
30
0
0
VERTEX
8
0
10
1150
20
1050
30
0
0
SEQEND
0
POLYLINE
8
0
66
1
70
1
10
0
20
0
30
0
0
VERTEX
8
0
10
1150
20
1050
30
0
0
VERTEX
8
0
10
1150
20
1060
30
0
0
VERTEX
8
0
10
1160
20
1060
30
0
0
VERTEX
8
0
10
1160
20
1050
30
0
0
SEQEND
0
POLYLINE
8
0
66
1
70
1
10
0
20
0
30
0
0
VERTEX
8
0
10
1170
20
1050
30
0
0
VERTEX
8
0
10
1170
20
1060
30
0
0
VERTEX
8
0
10
1180
20
1060
30
0
0
VERTEX
8
0
10
1180
20
1050
30
0
0
SEQEND
0
POLYLINE
8
0
66
1
70
1
10
0
20
0
30
0
0
VERTEX
8
0
10
1190
20
1050
30
0
0
VERTEX
8
0
10
1190
20
1060
30
0
0
VERTEX
8
0
10
1200
20
1060
30
0
0
VERTEX
8
0
10
1200
20
1050
30
0
0
SEQEND
0
POLYLINE
8
0
66
1
70
1
10
0
20
0
30
0
0
VERTEX
8
0
10
1210
20
1050
30
0
0
VERTEX
8
0
10
1210
20
1060
30
0
0
VERTEX
8
0
10
1220
20
1060
30
0
0
VERTEX
8
0
10
1220
20
1050
30
0
0
SEQEND
0
POLYLINE
8
0
66
1
70
1
10
0
20
0
30
0
0
VERTEX
8
0
10
1220
20
1050
30
0
0
VERTEX
8
0
10
1220
20
1060
30
0
0
VERTEX
8
0
10
1230
20
1060
30
0
0
VERTEX
8
0
10
1230
20
1050
30
0
0
SEQEND
0
POLYLINE
8
0
66
1
70
1
10
0
20
0
30
0
0
VERTEX
8
0
10
1230
20
1050
30
0
0
VERTEX
8
0
10
1230
20
1060
30
0
0
VERTEX
8
0
10
1240
20
1060
30
0
0
VERTEX
8
0
10
1240
20
1050
30
0
0
SEQEND
0
POLYLINE
8
0
66
1
70
1
10
0
20
0
30
0
0
VERTEX
8
0
10
1250
20
1050
30
0
0
VERTEX
8
0
10
1250
20
1060
30
0
0
VERTEX
8
0
10
1260
20
1060
30
0
0
VERTEX
8
0
10
1260
20
1050
30
0
0
SEQEND
0
POLYLINE
8
0
66
1
70
1
10
0
20
0
30
0
0
VERTEX
8
0
10
1010
20
1060
30
0
0
VERTEX
8
0
10
1010
20
1070
30
0
0
VERTEX
8
0
10
1020
20
1070
30
0
0
VERTEX
8
0
10
1020
20
1060
30
0
0
SEQEND
0
POLYLINE
8
0
66
1
70
1
10
0
20
0
30
0
0
VERTEX
8
0
10
1070
20
1060
30
0
0
VERTEX
8
0
10
1070
20
1070
30
0
0
VERTEX
8
0
10
1080
20
1070
30
0
0
VERTEX
8
0
10
1080
20
1060
30
0
0
SEQEND
0
POLYLINE
8
0
66
1
70
1
10
0
20
0
30
0
0
VERTEX
8
0
10
1110
20
1060
30
0
0
VERTEX
8
0
10
1110
20
1070
30
0
0
VERTEX
8
0
10
1120
20
1070
30
0
0
VERTEX
8
0
10
1120
20
1060
30
0
0
SEQEND
0
POLYLINE
8
0
66
1
70
1
10
0
20
0
30
0
0
VERTEX
8
0
10
1130
20
1060
30
0
0
VERTEX
8
0
10
1130
20
1070
30
0
0
VERTEX
8
0
10
1140
20
1070
30
0
0
VERTEX
8
0
10
1140
20
1060
30
0
0
SEQEND
0
POLYLINE
8
0
66
1
70
1
10
0
20
0
30
0
0
VERTEX
8
0
10
1150
20
1060
30
0
0
VERTEX
8
0
10
1150
20
1070
30
0
0
VERTEX
8
0
10
1160
20
1070
30
0
0
VERTEX
8
0
10
1160
20
1060
30
0
0
SEQEND
0
POLYLINE
8
0
66
1
70
1
10
0
20
0
30
0
0
VERTEX
8
0
10
1170
20
1060
30
0
0
VERTEX
8
0
10
1170
20
1070
30
0
0
VERTEX
8
0
10
1180
20
1070
30
0
0
VERTEX
8
0
10
1180
20
1060
30
0
0
SEQEND
0
POLYLINE
8
0
66
1
70
1
10
0
20
0
30
0
0
VERTEX
8
0
10
1190
20
1060
30
0
0
VERTEX
8
0
10
1190
20
1070
30
0
0
VERTEX
8
0
10
1200
20
1070
30
0
0
VERTEX
8
0
10
1200
20
1060
30
0
0
SEQEND
0
POLYLINE
8
0
66
1
70
1
10
0
20
0
30
0
0
VERTEX
8
0
10
1250
20
1060
30
0
0
VERTEX
8
0
10
1250
20
1070
30
0
0
VERTEX
8
0
10
1260
20
1070
30
0
0
VERTEX
8
0
10
1260
20
1060
30
0
0
SEQEND
0
POLYLINE
8
0
66
1
70
1
10
0
20
0
30
0
0
VERTEX
8
0
10
1010
20
1070
30
0
0
VERTEX
8
0
10
1010
20
1080
30
0
0
VERTEX
8
0
10
1020
20
1080
30
0
0
VERTEX
8
0
10
1020
20
1070
30
0
0
SEQEND
0
POLYLINE
8
0
66
1
70
1
10
0
20
0
30
0
0
VERTEX
8
0
10
1020
20
1070
30
0
0
VERTEX
8
0
10
1020
20
1080
30
0
0
VERTEX
8
0
10
1030
20
1080
30
0
0
VERTEX
8
0
10
1030
20
1070
30
0
0
SEQEND
0
POLYLINE
8
0
66
1
70
1
10
0
20
0
30
0
0
VERTEX
8
0
10
1030
20
1070
30
0
0
VERTEX
8
0
10
1030
20
1080
30
0
0
VERTEX
8
0
10
1040
20
1080
30
0
0
VERTEX
8
0
10
1040
20
1070
30
0
0
SEQEND
0
POLYLINE
8
0
66
1
70
1
10
0
20
0
30
0
0
VERTEX
8
0
10
1040
20
1070
30
0
0
VERTEX
8
0
10
1040
20
1080
30
0
0
VERTEX
8
0
10
1050
20
1080
30
0
0
VERTEX
8
0
10
1050
20
1070
30
0
0
SEQEND
0
POLYLINE
8
0
66
1
70
1
10
0
20
0
30
0
0
VERTEX
8
0
10
1050
20
1070
30
0
0
VERTEX
8
0
10
1050
20
1080
30
0
0
VERTEX
8
0
10
1060
20
1080
30
0
0
VERTEX
8
0
10
1060
20
1070
30
0
0
SEQEND
0
POLYLINE
8
0
66
1
70
1
10
0
20
0
30
0
0
VERTEX
8
0
10
1060
20
1070
30
0
0
VERTEX
8
0
10
1060
20
1080
30
0
0
VERTEX
8
0
10
1070
20
1080
30
0
0
VERTEX
8
0
10
1070
20
1070
30
0
0
SEQEND
0
POLYLINE
8
0
66
1
70
1
10
0
20
0
30
0
0
VERTEX
8
0
10
1070
20
1070
30
0
0
VERTEX
8
0
10
1070
20
1080
30
0
0
VERTEX
8
0
10
1080
20
1080
30
0
0
VERTEX
8
0
10
1080
20
1070
30
0
0
SEQEND
0
POLYLINE
8
0
66
1
70
1
10
0
20
0
30
0
0
VERTEX
8
0
10
1090
20
1070
30
0
0
VERTEX
8
0
10
1090
20
1080
30
0
0
VERTEX
8
0
10
1100
20
1080
30
0
0
VERTEX
8
0
10
1100
20
1070
30
0
0
SEQEND
0
POLYLINE
8
0
66
1
70
1
10
0
20
0
30
0
0
VERTEX
8
0
10
1110
20
1070
30
0
0
VERTEX
8
0
10
1110
20
1080
30
0
0
VERTEX
8
0
10
1120
20
1080
30
0
0
VERTEX
8
0
10
1120
20
1070
30
0
0
SEQEND
0
POLYLINE
8
0
66
1
70
1
10
0
20
0
30
0
0
VERTEX
8
0
10
1130
20
1070
30
0
0
VERTEX
8
0
10
1130
20
1080
30
0
0
VERTEX
8
0
10
1140
20
1080
30
0
0
VERTEX
8
0
10
1140
20
1070
30
0
0
SEQEND
0
POLYLINE
8
0
66
1
70
1
10
0
20
0
30
0
0
VERTEX
8
0
10
1150
20
1070
30
0
0
VERTEX
8
0
10
1150
20
1080
30
0
0
VERTEX
8
0
10
1160
20
1080
30
0
0
VERTEX
8
0
10
1160
20
1070
30
0
0
SEQEND
0
POLYLINE
8
0
66
1
70
1
10
0
20
0
30
0
0
VERTEX
8
0
10
1170
20
1070
30
0
0
VERTEX
8
0
10
1170
20
1080
30
0
0
VERTEX
8
0
10
1180
20
1080
30
0
0
VERTEX
8
0
10
1180
20
1070
30
0
0
SEQEND
0
POLYLINE
8
0
66
1
70
1
10
0
20
0
30
0
0
VERTEX
8
0
10
1190
20
1070
30
0
0
VERTEX
8
0
10
1190
20
1080
30
0
0
VERTEX
8
0
10
1200
20
1080
30
0
0
VERTEX
8
0
10
1200
20
1070
30
0
0
SEQEND
0
POLYLINE
8
0
66
1
70
1
10
0
20
0
30
0
0
VERTEX
8
0
10
1200
20
1070
30
0
0
VERTEX
8
0
10
1200
20
1080
30
0
0
VERTEX
8
0
10
1210
20
1080
30
0
0
VERTEX
8
0
10
1210
20
1070
30
0
0
SEQEND
0
POLYLINE
8
0
66
1
70
1
10
0
20
0
30
0
0
VERTEX
8
0
10
1210
20
1070
30
0
0
VERTEX
8
0
10
1210
20
1080
30
0
0
VERTEX
8
0
10
1220
20
1080
30
0
0
VERTEX
8
0
10
1220
20
1070
30
0
0
SEQEND
0
POLYLINE
8
0
66
1
70
1
10
0
20
0
30
0
0
VERTEX
8
0
10
1220
20
1070
30
0
0
VERTEX
8
0
10
1220
20
1080
30
0
0
VERTEX
8
0
10
1230
20
1080
30
0
0
VERTEX
8
0
10
1230
20
1070
30
0
0
SEQEND
0
POLYLINE
8
0
66
1
70
1
10
0
20
0
30
0
0
VERTEX
8
0
10
1230
20
1070
30
0
0
VERTEX
8
0
10
1230
20
1080
30
0
0
VERTEX
8
0
10
1240
20
1080
30
0
0
VERTEX
8
0
10
1240
20
1070
30
0
0
SEQEND
0
POLYLINE
8
0
66
1
70
1
10
0
20
0
30
0
0
VERTEX
8
0
10
1240
20
1070
30
0
0
VERTEX
8
0
10
1240
20
1080
30
0
0
VERTEX
8
0
10
1250
20
1080
30
0
0
VERTEX
8
0
10
1250
20
1070
30
0
0
SEQEND
0
POLYLINE
8
0
66
1
70
1
10
0
20
0
30
0
0
VERTEX
8
0
10
1250
20
1070
30
0
0
VERTEX
8
0
10
1250
20
1080
30
0
0
VERTEX
8
0
10
1260
20
1080
30
0
0
VERTEX
8
0
10
1260
20
1070
30
0
0
SEQEND
0
POLYLINE
8
0
66
1
70
1
10
0
20
0
30
0
0
VERTEX
8
0
10
1090
20
1080
30
0
0
VERTEX
8
0
10
1090
20
1090
30
0
0
VERTEX
8
0
10
1100
20
1090
30
0
0
VERTEX
8
0
10
1100
20
1080
30
0
0
SEQEND
0
POLYLINE
8
0
66
1
70
1
10
0
20
0
30
0
0
VERTEX
8
0
10
1110
20
1080
30
0
0
VERTEX
8
0
10
1110
20
1090
30
0
0
VERTEX
8
0
10
1120
20
1090
30
0
0
VERTEX
8
0
10
1120
20
1080
30
0
0
SEQEND
0
POLYLINE
8
0
66
1
70
1
10
0
20
0
30
0
0
VERTEX
8
0
10
1120
20
1080
30
0
0
VERTEX
8
0
10
1120
20
1090
30
0
0
VERTEX
8
0
10
1130
20
1090
30
0
0
VERTEX
8
0
10
1130
20
1080
30
0
0
SEQEND
0
POLYLINE
8
0
66
1
70
1
10
0
20
0
30
0
0
VERTEX
8
0
10
1140
20
1080
30
0
0
VERTEX
8
0
10
1140
20
1090
30
0
0
VERTEX
8
0
10
1150
20
1090
30
0
0
VERTEX
8
0
10
1150
20
1080
30
0
0
SEQEND
0
POLYLINE
8
0
66
1
70
1
10
0
20
0
30
0
0
VERTEX
8
0
10
1160
20
1080
30
0
0
VERTEX
8
0
10
1160
20
1090
30
0
0
VERTEX
8
0
10
1170
20
1090
30
0
0
VERTEX
8
0
10
1170
20
1080
30
0
0
SEQEND
0
POLYLINE
8
0
66
1
70
1
10
0
20
0
30
0
0
VERTEX
8
0
10
1170
20
1080
30
0
0
VERTEX
8
0
10
1170
20
1090
30
0
0
VERTEX
8
0
10
1180
20
1090
30
0
0
VERTEX
8
0
10
1180
20
1080
30
0
0
SEQEND
0
POLYLINE
8
0
66
1
70
1
10
0
20
0
30
0
0
VERTEX
8
0
10
1010
20
1090
30
0
0
VERTEX
8
0
10
1010
20
1100
30
0
0
VERTEX
8
0
10
1020
20
1100
30
0
0
VERTEX
8
0
10
1020
20
1090
30
0
0
SEQEND
0
POLYLINE
8
0
66
1
70
1
10
0
20
0
30
0
0
VERTEX
8
0
10
1020
20
1090
30
0
0
VERTEX
8
0
10
1020
20
1100
30
0
0
VERTEX
8
0
10
1030
20
1100
30
0
0
VERTEX
8
0
10
1030
20
1090
30
0
0
SEQEND
0
POLYLINE
8
0
66
1
70
1
10
0
20
0
30
0
0
VERTEX
8
0
10
1040
20
1090
30
0
0
VERTEX
8
0
10
1040
20
1100
30
0
0
VERTEX
8
0
10
1050
20
1100
30
0
0
VERTEX
8
0
10
1050
20
1090
30
0
0
SEQEND
0
POLYLINE
8
0
66
1
70
1
10
0
20
0
30
0
0
VERTEX
8
0
10
1050
20
1090
30
0
0
VERTEX
8
0
10
1050
20
1100
30
0
0
VERTEX
8
0
10
1060
20
1100
30
0
0
VERTEX
8
0
10
1060
20
1090
30
0
0
SEQEND
0
POLYLINE
8
0
66
1
70
1
10
0
20
0
30
0
0
VERTEX
8
0
10
1070
20
1090
30
0
0
VERTEX
8
0
10
1070
20
1100
30
0
0
VERTEX
8
0
10
1080
20
1100
30
0
0
VERTEX
8
0
10
1080
20
1090
30
0
0
SEQEND
0
POLYLINE
8
0
66
1
70
1
10
0
20
0
30
0
0
VERTEX
8
0
10
1100
20
1090
30
0
0
VERTEX
8
0
10
1100
20
1100
30
0
0
VERTEX
8
0
10
1110
20
1100
30
0
0
VERTEX
8
0
10
1110
20
1090
30
0
0
SEQEND
0
POLYLINE
8
0
66
1
70
1
10
0
20
0
30
0
0
VERTEX
8
0
10
1110
20
1090
30
0
0
VERTEX
8
0
10
1110
20
1100
30
0
0
VERTEX
8
0
10
1120
20
1100
30
0
0
VERTEX
8
0
10
1120
20
1090
30
0
0
SEQEND
0
POLYLINE
8
0
66
1
70
1
10
0
20
0
30
0
0
VERTEX
8
0
10
1120
20
1090
30
0
0
VERTEX
8
0
10
1120
20
1100
30
0
0
VERTEX
8
0
10
1130
20
1100
30
0
0
VERTEX
8
0
10
1130
20
1090
30
0
0
SEQEND
0
POLYLINE
8
0
66
1
70
1
10
0
20
0
30
0
0
VERTEX
8
0
10
1140
20
1090
30
0
0
VERTEX
8
0
10
1140
20
1100
30
0
0
VERTEX
8
0
10
1150
20
1100
30
0
0
VERTEX
8
0
10
1150
20
1090
30
0
0
SEQEND
0
POLYLINE
8
0
66
1
70
1
10
0
20
0
30
0
0
VERTEX
8
0
10
1170
20
1090
30
0
0
VERTEX
8
0
10
1170
20
1100
30
0
0
VERTEX
8
0
10
1180
20
1100
30
0
0
VERTEX
8
0
10
1180
20
1090
30
0
0
SEQEND
0
POLYLINE
8
0
66
1
70
1
10
0
20
0
30
0
0
VERTEX
8
0
10
1190
20
1090
30
0
0
VERTEX
8
0
10
1190
20
1100
30
0
0
VERTEX
8
0
10
1200
20
1100
30
0
0
VERTEX
8
0
10
1200
20
1090
30
0
0
SEQEND
0
POLYLINE
8
0
66
1
70
1
10
0
20
0
30
0
0
VERTEX
8
0
10
1250
20
1090
30
0
0
VERTEX
8
0
10
1250
20
1100
30
0
0
VERTEX
8
0
10
1260
20
1100
30
0
0
VERTEX
8
0
10
1260
20
1090
30
0
0
SEQEND
0
POLYLINE
8
0
66
1
70
1
10
0
20
0
30
0
0
VERTEX
8
0
10
1010
20
1100
30
0
0
VERTEX
8
0
10
1010
20
1110
30
0
0
VERTEX
8
0
10
1020
20
1110
30
0
0
VERTEX
8
0
10
1020
20
1100
30
0
0
SEQEND
0
POLYLINE
8
0
66
1
70
1
10
0
20
0
30
0
0
VERTEX
8
0
10
1050
20
1100
30
0
0
VERTEX
8
0
10
1050
20
1110
30
0
0
VERTEX
8
0
10
1060
20
1110
30
0
0
VERTEX
8
0
10
1060
20
1100
30
0
0
SEQEND
0
POLYLINE
8
0
66
1
70
1
10
0
20
0
30
0
0
VERTEX
8
0
10
1080
20
1100
30
0
0
VERTEX
8
0
10
1080
20
1110
30
0
0
VERTEX
8
0
10
1090
20
1110
30
0
0
VERTEX
8
0
10
1090
20
1100
30
0
0
SEQEND
0
POLYLINE
8
0
66
1
70
1
10
0
20
0
30
0
0
VERTEX
8
0
10
1090
20
1100
30
0
0
VERTEX
8
0
10
1090
20
1110
30
0
0
VERTEX
8
0
10
1100
20
1110
30
0
0
VERTEX
8
0
10
1100
20
1100
30
0
0
SEQEND
0
POLYLINE
8
0
66
1
70
1
10
0
20
0
30
0
0
VERTEX
8
0
10
1100
20
1100
30
0
0
VERTEX
8
0
10
1100
20
1110
30
0
0
VERTEX
8
0
10
1110
20
1110
30
0
0
VERTEX
8
0
10
1110
20
1100
30
0
0
SEQEND
0
POLYLINE
8
0
66
1
70
1
10
0
20
0
30
0
0
VERTEX
8
0
10
1130
20
1100
30
0
0
VERTEX
8
0
10
1130
20
1110
30
0
0
VERTEX
8
0
10
1140
20
1110
30
0
0
VERTEX
8
0
10
1140
20
1100
30
0
0
SEQEND
0
POLYLINE
8
0
66
1
70
1
10
0
20
0
30
0
0
VERTEX
8
0
10
1140
20
1100
30
0
0
VERTEX
8
0
10
1140
20
1110
30
0
0
VERTEX
8
0
10
1150
20
1110
30
0
0
VERTEX
8
0
10
1150
20
1100
30
0
0
SEQEND
0
POLYLINE
8
0
66
1
70
1
10
0
20
0
30
0
0
VERTEX
8
0
10
1150
20
1100
30
0
0
VERTEX
8
0
10
1150
20
1110
30
0
0
VERTEX
8
0
10
1160
20
1110
30
0
0
VERTEX
8
0
10
1160
20
1100
30
0
0
SEQEND
0
POLYLINE
8
0
66
1
70
1
10
0
20
0
30
0
0
VERTEX
8
0
10
1160
20
1100
30
0
0
VERTEX
8
0
10
1160
20
1110
30
0
0
VERTEX
8
0
10
1170
20
1110
30
0
0
VERTEX
8
0
10
1170
20
1100
30
0
0
SEQEND
0
POLYLINE
8
0
66
1
70
1
10
0
20
0
30
0
0
VERTEX
8
0
10
1170
20
1100
30
0
0
VERTEX
8
0
10
1170
20
1110
30
0
0
VERTEX
8
0
10
1180
20
1110
30
0
0
VERTEX
8
0
10
1180
20
1100
30
0
0
SEQEND
0
POLYLINE
8
0
66
1
70
1
10
0
20
0
30
0
0
VERTEX
8
0
10
1180
20
1100
30
0
0
VERTEX
8
0
10
1180
20
1110
30
0
0
VERTEX
8
0
10
1190
20
1110
30
0
0
VERTEX
8
0
10
1190
20
1100
30
0
0
SEQEND
0
POLYLINE
8
0
66
1
70
1
10
0
20
0
30
0
0
VERTEX
8
0
10
1200
20
1100
30
0
0
VERTEX
8
0
10
1200
20
1110
30
0
0
VERTEX
8
0
10
1210
20
1110
30
0
0
VERTEX
8
0
10
1210
20
1100
30
0
0
SEQEND
0
POLYLINE
8
0
66
1
70
1
10
0
20
0
30
0
0
VERTEX
8
0
10
1210
20
1100
30
0
0
VERTEX
8
0
10
1210
20
1110
30
0
0
VERTEX
8
0
10
1220
20
1110
30
0
0
VERTEX
8
0
10
1220
20
1100
30
0
0
SEQEND
0
POLYLINE
8
0
66
1
70
1
10
0
20
0
30
0
0
VERTEX
8
0
10
1220
20
1100
30
0
0
VERTEX
8
0
10
1220
20
1110
30
0
0
VERTEX
8
0
10
1230
20
1110
30
0
0
VERTEX
8
0
10
1230
20
1100
30
0
0
SEQEND
0
POLYLINE
8
0
66
1
70
1
10
0
20
0
30
0
0
VERTEX
8
0
10
1230
20
1100
30
0
0
VERTEX
8
0
10
1230
20
1110
30
0
0
VERTEX
8
0
10
1240
20
1110
30
0
0
VERTEX
8
0
10
1240
20
1100
30
0
0
SEQEND
0
POLYLINE
8
0
66
1
70
1
10
0
20
0
30
0
0
VERTEX
8
0
10
1240
20
1100
30
0
0
VERTEX
8
0
10
1240
20
1110
30
0
0
VERTEX
8
0
10
1250
20
1110
30
0
0
VERTEX
8
0
10
1250
20
1100
30
0
0
SEQEND
0
POLYLINE
8
0
66
1
70
1
10
0
20
0
30
0
0
VERTEX
8
0
10
1010
20
1110
30
0
0
VERTEX
8
0
10
1010
20
1120
30
0
0
VERTEX
8
0
10
1020
20
1120
30
0
0
VERTEX
8
0
10
1020
20
1110
30
0
0
SEQEND
0
POLYLINE
8
0
66
1
70
1
10
0
20
0
30
0
0
VERTEX
8
0
10
1040
20
1110
30
0
0
VERTEX
8
0
10
1040
20
1120
30
0
0
VERTEX
8
0
10
1050
20
1120
30
0
0
VERTEX
8
0
10
1050
20
1110
30
0
0
SEQEND
0
POLYLINE
8
0
66
1
70
1
10
0
20
0
30
0
0
VERTEX
8
0
10
1060
20
1110
30
0
0
VERTEX
8
0
10
1060
20
1120
30
0
0
VERTEX
8
0
10
1070
20
1120
30
0
0
VERTEX
8
0
10
1070
20
1110
30
0
0
SEQEND
0
POLYLINE
8
0
66
1
70
1
10
0
20
0
30
0
0
VERTEX
8
0
10
1070
20
1110
30
0
0
VERTEX
8
0
10
1070
20
1120
30
0
0
VERTEX
8
0
10
1080
20
1120
30
0
0
VERTEX
8
0
10
1080
20
1110
30
0
0
SEQEND
0
POLYLINE
8
0
66
1
70
1
10
0
20
0
30
0
0
VERTEX
8
0
10
1110
20
1110
30
0
0
VERTEX
8
0
10
1110
20
1120
30
0
0
VERTEX
8
0
10
1120
20
1120
30
0
0
VERTEX
8
0
10
1120
20
1110
30
0
0
SEQEND
0
POLYLINE
8
0
66
1
70
1
10
0
20
0
30
0
0
VERTEX
8
0
10
1120
20
1110
30
0
0
VERTEX
8
0
10
1120
20
1120
30
0
0
VERTEX
8
0
10
1130
20
1120
30
0
0
VERTEX
8
0
10
1130
20
1110
30
0
0
SEQEND
0
POLYLINE
8
0
66
1
70
1
10
0
20
0
30
0
0
VERTEX
8
0
10
1140
20
1110
30
0
0
VERTEX
8
0
10
1140
20
1120
30
0
0
VERTEX
8
0
10
1150
20
1120
30
0
0
VERTEX
8
0
10
1150
20
1110
30
0
0
SEQEND
0
POLYLINE
8
0
66
1
70
1
10
0
20
0
30
0
0
VERTEX
8
0
10
1160
20
1110
30
0
0
VERTEX
8
0
10
1160
20
1120
30
0
0
VERTEX
8
0
10
1170
20
1120
30
0
0
VERTEX
8
0
10
1170
20
1110
30
0
0
SEQEND
0
POLYLINE
8
0
66
1
70
1
10
0
20
0
30
0
0
VERTEX
8
0
10
1170
20
1110
30
0
0
VERTEX
8
0
10
1170
20
1120
30
0
0
VERTEX
8
0
10
1180
20
1120
30
0
0
VERTEX
8
0
10
1180
20
1110
30
0
0
SEQEND
0
POLYLINE
8
0
66
1
70
1
10
0
20
0
30
0
0
VERTEX
8
0
10
1180
20
1110
30
0
0
VERTEX
8
0
10
1180
20
1120
30
0
0
VERTEX
8
0
10
1190
20
1120
30
0
0
VERTEX
8
0
10
1190
20
1110
30
0
0
SEQEND
0
POLYLINE
8
0
66
1
70
1
10
0
20
0
30
0
0
VERTEX
8
0
10
1200
20
1110
30
0
0
VERTEX
8
0
10
1200
20
1120
30
0
0
VERTEX
8
0
10
1210
20
1120
30
0
0
VERTEX
8
0
10
1210
20
1110
30
0
0
SEQEND
0
POLYLINE
8
0
66
1
70
1
10
0
20
0
30
0
0
VERTEX
8
0
10
1210
20
1110
30
0
0
VERTEX
8
0
10
1210
20
1120
30
0
0
VERTEX
8
0
10
1220
20
1120
30
0
0
VERTEX
8
0
10
1220
20
1110
30
0
0
SEQEND
0
POLYLINE
8
0
66
1
70
1
10
0
20
0
30
0
0
VERTEX
8
0
10
1220
20
1110
30
0
0
VERTEX
8
0
10
1220
20
1120
30
0
0
VERTEX
8
0
10
1230
20
1120
30
0
0
VERTEX
8
0
10
1230
20
1110
30
0
0
SEQEND
0
POLYLINE
8
0
66
1
70
1
10
0
20
0
30
0
0
VERTEX
8
0
10
1250
20
1110
30
0
0
VERTEX
8
0
10
1250
20
1120
30
0
0
VERTEX
8
0
10
1260
20
1120
30
0
0
VERTEX
8
0
10
1260
20
1110
30
0
0
SEQEND
0
POLYLINE
8
0
66
1
70
1
10
0
20
0
30
0
0
VERTEX
8
0
10
1020
20
1120
30
0
0
VERTEX
8
0
10
1020
20
1130
30
0
0
VERTEX
8
0
10
1030
20
1130
30
0
0
VERTEX
8
0
10
1030
20
1120
30
0
0
SEQEND
0
POLYLINE
8
0
66
1
70
1
10
0
20
0
30
0
0
VERTEX
8
0
10
1030
20
1120
30
0
0
VERTEX
8
0
10
1030
20
1130
30
0
0
VERTEX
8
0
10
1040
20
1130
30
0
0
VERTEX
8
0
10
1040
20
1120
30
0
0
SEQEND
0
POLYLINE
8
0
66
1
70
1
10
0
20
0
30
0
0
VERTEX
8
0
10
1050
20
1120
30
0
0
VERTEX
8
0
10
1050
20
1130
30
0
0
VERTEX
8
0
10
1060
20
1130
30
0
0
VERTEX
8
0
10
1060
20
1120
30
0
0
SEQEND
0
POLYLINE
8
0
66
1
70
1
10
0
20
0
30
0
0
VERTEX
8
0
10
1100
20
1120
30
0
0
VERTEX
8
0
10
1100
20
1130
30
0
0
VERTEX
8
0
10
1110
20
1130
30
0
0
VERTEX
8
0
10
1110
20
1120
30
0
0
SEQEND
0
POLYLINE
8
0
66
1
70
1
10
0
20
0
30
0
0
VERTEX
8
0
10
1110
20
1120
30
0
0
VERTEX
8
0
10
1110
20
1130
30
0
0
VERTEX
8
0
10
1120
20
1130
30
0
0
VERTEX
8
0
10
1120
20
1120
30
0
0
SEQEND
0
POLYLINE
8
0
66
1
70
1
10
0
20
0
30
0
0
VERTEX
8
0
10
1120
20
1120
30
0
0
VERTEX
8
0
10
1120
20
1130
30
0
0
VERTEX
8
0
10
1130
20
1130
30
0
0
VERTEX
8
0
10
1130
20
1120
30
0
0
SEQEND
0
POLYLINE
8
0
66
1
70
1
10
0
20
0
30
0
0
VERTEX
8
0
10
1130
20
1120
30
0
0
VERTEX
8
0
10
1130
20
1130
30
0
0
VERTEX
8
0
10
1140
20
1130
30
0
0
VERTEX
8
0
10
1140
20
1120
30
0
0
SEQEND
0
POLYLINE
8
0
66
1
70
1
10
0
20
0
30
0
0
VERTEX
8
0
10
1140
20
1120
30
0
0
VERTEX
8
0
10
1140
20
1130
30
0
0
VERTEX
8
0
10
1150
20
1130
30
0
0
VERTEX
8
0
10
1150
20
1120
30
0
0
SEQEND
0
POLYLINE
8
0
66
1
70
1
10
0
20
0
30
0
0
VERTEX
8
0
10
1180
20
1120
30
0
0
VERTEX
8
0
10
1180
20
1130
30
0
0
VERTEX
8
0
10
1190
20
1130
30
0
0
VERTEX
8
0
10
1190
20
1120
30
0
0
SEQEND
0
POLYLINE
8
0
66
1
70
1
10
0
20
0
30
0
0
VERTEX
8
0
10
1190
20
1120
30
0
0
VERTEX
8
0
10
1190
20
1130
30
0
0
VERTEX
8
0
10
1200
20
1130
30
0
0
VERTEX
8
0
10
1200
20
1120
30
0
0
SEQEND
0
POLYLINE
8
0
66
1
70
1
10
0
20
0
30
0
0
VERTEX
8
0
10
1200
20
1120
30
0
0
VERTEX
8
0
10
1200
20
1130
30
0
0
VERTEX
8
0
10
1210
20
1130
30
0
0
VERTEX
8
0
10
1210
20
1120
30
0
0
SEQEND
0
POLYLINE
8
0
66
1
70
1
10
0
20
0
30
0
0
VERTEX
8
0
10
1220
20
1120
30
0
0
VERTEX
8
0
10
1220
20
1130
30
0
0
VERTEX
8
0
10
1230
20
1130
30
0
0
VERTEX
8
0
10
1230
20
1120
30
0
0
SEQEND
0
POLYLINE
8
0
66
1
70
1
10
0
20
0
30
0
0
VERTEX
8
0
10
1230
20
1120
30
0
0
VERTEX
8
0
10
1230
20
1130
30
0
0
VERTEX
8
0
10
1240
20
1130
30
0
0
VERTEX
8
0
10
1240
20
1120
30
0
0
SEQEND
0
POLYLINE
8
0
66
1
70
1
10
0
20
0
30
0
0
VERTEX
8
0
10
1240
20
1120
30
0
0
VERTEX
8
0
10
1240
20
1130
30
0
0
VERTEX
8
0
10
1250
20
1130
30
0
0
VERTEX
8
0
10
1250
20
1120
30
0
0
SEQEND
0
POLYLINE
8
0
66
1
70
1
10
0
20
0
30
0
0
VERTEX
8
0
10
1250
20
1120
30
0
0
VERTEX
8
0
10
1250
20
1130
30
0
0
VERTEX
8
0
10
1260
20
1130
30
0
0
VERTEX
8
0
10
1260
20
1120
30
0
0
SEQEND
0
POLYLINE
8
0
66
1
70
1
10
0
20
0
30
0
0
VERTEX
8
0
10
1010
20
1130
30
0
0
VERTEX
8
0
10
1010
20
1140
30
0
0
VERTEX
8
0
10
1020
20
1140
30
0
0
VERTEX
8
0
10
1020
20
1130
30
0
0
SEQEND
0
POLYLINE
8
0
66
1
70
1
10
0
20
0
30
0
0
VERTEX
8
0
10
1020
20
1130
30
0
0
VERTEX
8
0
10
1020
20
1140
30
0
0
VERTEX
8
0
10
1030
20
1140
30
0
0
VERTEX
8
0
10
1030
20
1130
30
0
0
SEQEND
0
POLYLINE
8
0
66
1
70
1
10
0
20
0
30
0
0
VERTEX
8
0
10
1030
20
1130
30
0
0
VERTEX
8
0
10
1030
20
1140
30
0
0
VERTEX
8
0
10
1040
20
1140
30
0
0
VERTEX
8
0
10
1040
20
1130
30
0
0
SEQEND
0
POLYLINE
8
0
66
1
70
1
10
0
20
0
30
0
0
VERTEX
8
0
10
1060
20
1130
30
0
0
VERTEX
8
0
10
1060
20
1140
30
0
0
VERTEX
8
0
10
1070
20
1140
30
0
0
VERTEX
8
0
10
1070
20
1130
30
0
0
SEQEND
0
POLYLINE
8
0
66
1
70
1
10
0
20
0
30
0
0
VERTEX
8
0
10
1070
20
1130
30
0
0
VERTEX
8
0
10
1070
20
1140
30
0
0
VERTEX
8
0
10
1080
20
1140
30
0
0
VERTEX
8
0
10
1080
20
1130
30
0
0
SEQEND
0
POLYLINE
8
0
66
1
70
1
10
0
20
0
30
0
0
VERTEX
8
0
10
1080
20
1130
30
0
0
VERTEX
8
0
10
1080
20
1140
30
0
0
VERTEX
8
0
10
1090
20
1140
30
0
0
VERTEX
8
0
10
1090
20
1130
30
0
0
SEQEND
0
POLYLINE
8
0
66
1
70
1
10
0
20
0
30
0
0
VERTEX
8
0
10
1090
20
1130
30
0
0
VERTEX
8
0
10
1090
20
1140
30
0
0
VERTEX
8
0
10
1100
20
1140
30
0
0
VERTEX
8
0
10
1100
20
1130
30
0
0
SEQEND
0
POLYLINE
8
0
66
1
70
1
10
0
20
0
30
0
0
VERTEX
8
0
10
1100
20
1130
30
0
0
VERTEX
8
0
10
1100
20
1140
30
0
0
VERTEX
8
0
10
1110
20
1140
30
0
0
VERTEX
8
0
10
1110
20
1130
30
0
0
SEQEND
0
POLYLINE
8
0
66
1
70
1
10
0
20
0
30
0
0
VERTEX
8
0
10
1120
20
1130
30
0
0
VERTEX
8
0
10
1120
20
1140
30
0
0
VERTEX
8
0
10
1130
20
1140
30
0
0
VERTEX
8
0
10
1130
20
1130
30
0
0
SEQEND
0
POLYLINE
8
0
66
1
70
1
10
0
20
0
30
0
0
VERTEX
8
0
10
1130
20
1130
30
0
0
VERTEX
8
0
10
1130
20
1140
30
0
0
VERTEX
8
0
10
1140
20
1140
30
0
0
VERTEX
8
0
10
1140
20
1130
30
0
0
SEQEND
0
POLYLINE
8
0
66
1
70
1
10
0
20
0
30
0
0
VERTEX
8
0
10
1140
20
1130
30
0
0
VERTEX
8
0
10
1140
20
1140
30
0
0
VERTEX
8
0
10
1150
20
1140
30
0
0
VERTEX
8
0
10
1150
20
1130
30
0
0
SEQEND
0
POLYLINE
8
0
66
1
70
1
10
0
20
0
30
0
0
VERTEX
8
0
10
1160
20
1130
30
0
0
VERTEX
8
0
10
1160
20
1140
30
0
0
VERTEX
8
0
10
1170
20
1140
30
0
0
VERTEX
8
0
10
1170
20
1130
30
0
0
SEQEND
0
POLYLINE
8
0
66
1
70
1
10
0
20
0
30
0
0
VERTEX
8
0
10
1170
20
1130
30
0
0
VERTEX
8
0
10
1170
20
1140
30
0
0
VERTEX
8
0
10
1180
20
1140
30
0
0
VERTEX
8
0
10
1180
20
1130
30
0
0
SEQEND
0
POLYLINE
8
0
66
1
70
1
10
0
20
0
30
0
0
VERTEX
8
0
10
1190
20
1130
30
0
0
VERTEX
8
0
10
1190
20
1140
30
0
0
VERTEX
8
0
10
1200
20
1140
30
0
0
VERTEX
8
0
10
1200
20
1130
30
0
0
SEQEND
0
POLYLINE
8
0
66
1
70
1
10
0
20
0
30
0
0
VERTEX
8
0
10
1200
20
1130
30
0
0
VERTEX
8
0
10
1200
20
1140
30
0
0
VERTEX
8
0
10
1210
20
1140
30
0
0
VERTEX
8
0
10
1210
20
1130
30
0
0
SEQEND
0
POLYLINE
8
0
66
1
70
1
10
0
20
0
30
0
0
VERTEX
8
0
10
1250
20
1130
30
0
0
VERTEX
8
0
10
1250
20
1140
30
0
0
VERTEX
8
0
10
1260
20
1140
30
0
0
VERTEX
8
0
10
1260
20
1130
30
0
0
SEQEND
0
POLYLINE
8
0
66
1
70
1
10
0
20
0
30
0
0
VERTEX
8
0
10
1010
20
1140
30
0
0
VERTEX
8
0
10
1010
20
1150
30
0
0
VERTEX
8
0
10
1020
20
1150
30
0
0
VERTEX
8
0
10
1020
20
1140
30
0
0
SEQEND
0
POLYLINE
8
0
66
1
70
1
10
0
20
0
30
0
0
VERTEX
8
0
10
1030
20
1140
30
0
0
VERTEX
8
0
10
1030
20
1150
30
0
0
VERTEX
8
0
10
1040
20
1150
30
0
0
VERTEX
8
0
10
1040
20
1140
30
0
0
SEQEND
0
POLYLINE
8
0
66
1
70
1
10
0
20
0
30
0
0
VERTEX
8
0
10
1140
20
1140
30
0
0
VERTEX
8
0
10
1140
20
1150
30
0
0
VERTEX
8
0
10
1150
20
1150
30
0
0
VERTEX
8
0
10
1150
20
1140
30
0
0
SEQEND
0
POLYLINE
8
0
66
1
70
1
10
0
20
0
30
0
0
VERTEX
8
0
10
1150
20
1140
30
0
0
VERTEX
8
0
10
1150
20
1150
30
0
0
VERTEX
8
0
10
1160
20
1150
30
0
0
VERTEX
8
0
10
1160
20
1140
30
0
0
SEQEND
0
POLYLINE
8
0
66
1
70
1
10
0
20
0
30
0
0
VERTEX
8
0
10
1160
20
1140
30
0
0
VERTEX
8
0
10
1160
20
1150
30
0
0
VERTEX
8
0
10
1170
20
1150
30
0
0
VERTEX
8
0
10
1170
20
1140
30
0
0
SEQEND
0
POLYLINE
8
0
66
1
70
1
10
0
20
0
30
0
0
VERTEX
8
0
10
1170
20
1140
30
0
0
VERTEX
8
0
10
1170
20
1150
30
0
0
VERTEX
8
0
10
1180
20
1150
30
0
0
VERTEX
8
0
10
1180
20
1140
30
0
0
SEQEND
0
POLYLINE
8
0
66
1
70
1
10
0
20
0
30
0
0
VERTEX
8
0
10
1210
20
1140
30
0
0
VERTEX
8
0
10
1210
20
1150
30
0
0
VERTEX
8
0
10
1220
20
1150
30
0
0
VERTEX
8
0
10
1220
20
1140
30
0
0
SEQEND
0
POLYLINE
8
0
66
1
70
1
10
0
20
0
30
0
0
VERTEX
8
0
10
1240
20
1140
30
0
0
VERTEX
8
0
10
1240
20
1150
30
0
0
VERTEX
8
0
10
1250
20
1150
30
0
0
VERTEX
8
0
10
1250
20
1140
30
0
0
SEQEND
0
POLYLINE
8
0
66
1
70
1
10
0
20
0
30
0
0
VERTEX
8
0
10
1010
20
1150
30
0
0
VERTEX
8
0
10
1010
20
1160
30
0
0
VERTEX
8
0
10
1020
20
1160
30
0
0
VERTEX
8
0
10
1020
20
1150
30
0
0
SEQEND
0
POLYLINE
8
0
66
1
70
1
10
0
20
0
30
0
0
VERTEX
8
0
10
1020
20
1150
30
0
0
VERTEX
8
0
10
1020
20
1160
30
0
0
VERTEX
8
0
10
1030
20
1160
30
0
0
VERTEX
8
0
10
1030
20
1150
30
0
0
SEQEND
0
POLYLINE
8
0
66
1
70
1
10
0
20
0
30
0
0
VERTEX
8
0
10
1040
20
1150
30
0
0
VERTEX
8
0
10
1040
20
1160
30
0
0
VERTEX
8
0
10
1050
20
1160
30
0
0
VERTEX
8
0
10
1050
20
1150
30
0
0
SEQEND
0
POLYLINE
8
0
66
1
70
1
10
0
20
0
30
0
0
VERTEX
8
0
10
1060
20
1150
30
0
0
VERTEX
8
0
10
1060
20
1160
30
0
0
VERTEX
8
0
10
1070
20
1160
30
0
0
VERTEX
8
0
10
1070
20
1150
30
0
0
SEQEND
0
POLYLINE
8
0
66
1
70
1
10
0
20
0
30
0
0
VERTEX
8
0
10
1070
20
1150
30
0
0
VERTEX
8
0
10
1070
20
1160
30
0
0
VERTEX
8
0
10
1080
20
1160
30
0
0
VERTEX
8
0
10
1080
20
1150
30
0
0
SEQEND
0
POLYLINE
8
0
66
1
70
1
10
0
20
0
30
0
0
VERTEX
8
0
10
1120
20
1150
30
0
0
VERTEX
8
0
10
1120
20
1160
30
0
0
VERTEX
8
0
10
1130
20
1160
30
0
0
VERTEX
8
0
10
1130
20
1150
30
0
0
SEQEND
0
POLYLINE
8
0
66
1
70
1
10
0
20
0
30
0
0
VERTEX
8
0
10
1130
20
1150
30
0
0
VERTEX
8
0
10
1130
20
1160
30
0
0
VERTEX
8
0
10
1140
20
1160
30
0
0
VERTEX
8
0
10
1140
20
1150
30
0
0
SEQEND
0
POLYLINE
8
0
66
1
70
1
10
0
20
0
30
0
0
VERTEX
8
0
10
1140
20
1150
30
0
0
VERTEX
8
0
10
1140
20
1160
30
0
0
VERTEX
8
0
10
1150
20
1160
30
0
0
VERTEX
8
0
10
1150
20
1150
30
0
0
SEQEND
0
POLYLINE
8
0
66
1
70
1
10
0
20
0
30
0
0
VERTEX
8
0
10
1160
20
1150
30
0
0
VERTEX
8
0
10
1160
20
1160
30
0
0
VERTEX
8
0
10
1170
20
1160
30
0
0
VERTEX
8
0
10
1170
20
1150
30
0
0
SEQEND
0
POLYLINE
8
0
66
1
70
1
10
0
20
0
30
0
0
VERTEX
8
0
10
1170
20
1150
30
0
0
VERTEX
8
0
10
1170
20
1160
30
0
0
VERTEX
8
0
10
1180
20
1160
30
0
0
VERTEX
8
0
10
1180
20
1150
30
0
0
SEQEND
0
POLYLINE
8
0
66
1
70
1
10
0
20
0
30
0
0
VERTEX
8
0
10
1190
20
1150
30
0
0
VERTEX
8
0
10
1190
20
1160
30
0
0
VERTEX
8
0
10
1200
20
1160
30
0
0
VERTEX
8
0
10
1200
20
1150
30
0
0
SEQEND
0
POLYLINE
8
0
66
1
70
1
10
0
20
0
30
0
0
VERTEX
8
0
10
1210
20
1150
30
0
0
VERTEX
8
0
10
1210
20
1160
30
0
0
VERTEX
8
0
10
1220
20
1160
30
0
0
VERTEX
8
0
10
1220
20
1150
30
0
0
SEQEND
0
POLYLINE
8
0
66
1
70
1
10
0
20
0
30
0
0
VERTEX
8
0
10
1220
20
1150
30
0
0
VERTEX
8
0
10
1220
20
1160
30
0
0
VERTEX
8
0
10
1230
20
1160
30
0
0
VERTEX
8
0
10
1230
20
1150
30
0
0
SEQEND
0
POLYLINE
8
0
66
1
70
1
10
0
20
0
30
0
0
VERTEX
8
0
10
1230
20
1150
30
0
0
VERTEX
8
0
10
1230
20
1160
30
0
0
VERTEX
8
0
10
1240
20
1160
30
0
0
VERTEX
8
0
10
1240
20
1150
30
0
0
SEQEND
0
POLYLINE
8
0
66
1
70
1
10
0
20
0
30
0
0
VERTEX
8
0
10
1240
20
1150
30
0
0
VERTEX
8
0
10
1240
20
1160
30
0
0
VERTEX
8
0
10
1250
20
1160
30
0
0
VERTEX
8
0
10
1250
20
1150
30
0
0
SEQEND
0
POLYLINE
8
0
66
1
70
1
10
0
20
0
30
0
0
VERTEX
8
0
10
1250
20
1150
30
0
0
VERTEX
8
0
10
1250
20
1160
30
0
0
VERTEX
8
0
10
1260
20
1160
30
0
0
VERTEX
8
0
10
1260
20
1150
30
0
0
SEQEND
0
POLYLINE
8
0
66
1
70
1
10
0
20
0
30
0
0
VERTEX
8
0
10
1010
20
1160
30
0
0
VERTEX
8
0
10
1010
20
1170
30
0
0
VERTEX
8
0
10
1020
20
1170
30
0
0
VERTEX
8
0
10
1020
20
1160
30
0
0
SEQEND
0
POLYLINE
8
0
66
1
70
1
10
0
20
0
30
0
0
VERTEX
8
0
10
1030
20
1160
30
0
0
VERTEX
8
0
10
1030
20
1170
30
0
0
VERTEX
8
0
10
1040
20
1170
30
0
0
VERTEX
8
0
10
1040
20
1160
30
0
0
SEQEND
0
POLYLINE
8
0
66
1
70
1
10
0
20
0
30
0
0
VERTEX
8
0
10
1040
20
1160
30
0
0
VERTEX
8
0
10
1040
20
1170
30
0
0
VERTEX
8
0
10
1050
20
1170
30
0
0
VERTEX
8
0
10
1050
20
1160
30
0
0
SEQEND
0
POLYLINE
8
0
66
1
70
1
10
0
20
0
30
0
0
VERTEX
8
0
10
1050
20
1160
30
0
0
VERTEX
8
0
10
1050
20
1170
30
0
0
VERTEX
8
0
10
1060
20
1170
30
0
0
VERTEX
8
0
10
1060
20
1160
30
0
0
SEQEND
0
POLYLINE
8
0
66
1
70
1
10
0
20
0
30
0
0
VERTEX
8
0
10
1080
20
1160
30
0
0
VERTEX
8
0
10
1080
20
1170
30
0
0
VERTEX
8
0
10
1090
20
1170
30
0
0
VERTEX
8
0
10
1090
20
1160
30
0
0
SEQEND
0
POLYLINE
8
0
66
1
70
1
10
0
20
0
30
0
0
VERTEX
8
0
10
1120
20
1160
30
0
0
VERTEX
8
0
10
1120
20
1170
30
0
0
VERTEX
8
0
10
1130
20
1170
30
0
0
VERTEX
8
0
10
1130
20
1160
30
0
0
SEQEND
0
POLYLINE
8
0
66
1
70
1
10
0
20
0
30
0
0
VERTEX
8
0
10
1180
20
1160
30
0
0
VERTEX
8
0
10
1180
20
1170
30
0
0
VERTEX
8
0
10
1190
20
1170
30
0
0
VERTEX
8
0
10
1190
20
1160
30
0
0
SEQEND
0
POLYLINE
8
0
66
1
70
1
10
0
20
0
30
0
0
VERTEX
8
0
10
1190
20
1160
30
0
0
VERTEX
8
0
10
1190
20
1170
30
0
0
VERTEX
8
0
10
1200
20
1170
30
0
0
VERTEX
8
0
10
1200
20
1160
30
0
0
SEQEND
0
POLYLINE
8
0
66
1
70
1
10
0
20
0
30
0
0
VERTEX
8
0
10
1200
20
1160
30
0
0
VERTEX
8
0
10
1200
20
1170
30
0
0
VERTEX
8
0
10
1210
20
1170
30
0
0
VERTEX
8
0
10
1210
20
1160
30
0
0
SEQEND
0
POLYLINE
8
0
66
1
70
1
10
0
20
0
30
0
0
VERTEX
8
0
10
1220
20
1160
30
0
0
VERTEX
8
0
10
1220
20
1170
30
0
0
VERTEX
8
0
10
1230
20
1170
30
0
0
VERTEX
8
0
10
1230
20
1160
30
0
0
SEQEND
0
POLYLINE
8
0
66
1
70
1
10
0
20
0
30
0
0
VERTEX
8
0
10
1230
20
1160
30
0
0
VERTEX
8
0
10
1230
20
1170
30
0
0
VERTEX
8
0
10
1240
20
1170
30
0
0
VERTEX
8
0
10
1240
20
1160
30
0
0
SEQEND
0
POLYLINE
8
0
66
1
70
1
10
0
20
0
30
0
0
VERTEX
8
0
10
1250
20
1160
30
0
0
VERTEX
8
0
10
1250
20
1170
30
0
0
VERTEX
8
0
10
1260
20
1170
30
0
0
VERTEX
8
0
10
1260
20
1160
30
0
0
SEQEND
0
POLYLINE
8
0
66
1
70
1
10
0
20
0
30
0
0
VERTEX
8
0
10
1010
20
1170
30
0
0
VERTEX
8
0
10
1010
20
1180
30
0
0
VERTEX
8
0
10
1020
20
1180
30
0
0
VERTEX
8
0
10
1020
20
1170
30
0
0
SEQEND
0
POLYLINE
8
0
66
1
70
1
10
0
20
0
30
0
0
VERTEX
8
0
10
1030
20
1170
30
0
0
VERTEX
8
0
10
1030
20
1180
30
0
0
VERTEX
8
0
10
1040
20
1180
30
0
0
VERTEX
8
0
10
1040
20
1170
30
0
0
SEQEND
0
POLYLINE
8
0
66
1
70
1
10
0
20
0
30
0
0
VERTEX
8
0
10
1050
20
1170
30
0
0
VERTEX
8
0
10
1050
20
1180
30
0
0
VERTEX
8
0
10
1060
20
1180
30
0
0
VERTEX
8
0
10
1060
20
1170
30
0
0
SEQEND
0
POLYLINE
8
0
66
1
70
1
10
0
20
0
30
0
0
VERTEX
8
0
10
1070
20
1170
30
0
0
VERTEX
8
0
10
1070
20
1180
30
0
0
VERTEX
8
0
10
1080
20
1180
30
0
0
VERTEX
8
0
10
1080
20
1170
30
0
0
SEQEND
0
POLYLINE
8
0
66
1
70
1
10
0
20
0
30
0
0
VERTEX
8
0
10
1080
20
1170
30
0
0
VERTEX
8
0
10
1080
20
1180
30
0
0
VERTEX
8
0
10
1090
20
1180
30
0
0
VERTEX
8
0
10
1090
20
1170
30
0
0
SEQEND
0
POLYLINE
8
0
66
1
70
1
10
0
20
0
30
0
0
VERTEX
8
0
10
1110
20
1170
30
0
0
VERTEX
8
0
10
1110
20
1180
30
0
0
VERTEX
8
0
10
1120
20
1180
30
0
0
VERTEX
8
0
10
1120
20
1170
30
0
0
SEQEND
0
POLYLINE
8
0
66
1
70
1
10
0
20
0
30
0
0
VERTEX
8
0
10
1150
20
1170
30
0
0
VERTEX
8
0
10
1150
20
1180
30
0
0
VERTEX
8
0
10
1160
20
1180
30
0
0
VERTEX
8
0
10
1160
20
1170
30
0
0
SEQEND
0
POLYLINE
8
0
66
1
70
1
10
0
20
0
30
0
0
VERTEX
8
0
10
1170
20
1170
30
0
0
VERTEX
8
0
10
1170
20
1180
30
0
0
VERTEX
8
0
10
1180
20
1180
30
0
0
VERTEX
8
0
10
1180
20
1170
30
0
0
SEQEND
0
POLYLINE
8
0
66
1
70
1
10
0
20
0
30
0
0
VERTEX
8
0
10
1180
20
1170
30
0
0
VERTEX
8
0
10
1180
20
1180
30
0
0
VERTEX
8
0
10
1190
20
1180
30
0
0
VERTEX
8
0
10
1190
20
1170
30
0
0
SEQEND
0
POLYLINE
8
0
66
1
70
1
10
0
20
0
30
0
0
VERTEX
8
0
10
1190
20
1170
30
0
0
VERTEX
8
0
10
1190
20
1180
30
0
0
VERTEX
8
0
10
1200
20
1180
30
0
0
VERTEX
8
0
10
1200
20
1170
30
0
0
SEQEND
0
POLYLINE
8
0
66
1
70
1
10
0
20
0
30
0
0
VERTEX
8
0
10
1200
20
1170
30
0
0
VERTEX
8
0
10
1200
20
1180
30
0
0
VERTEX
8
0
10
1210
20
1180
30
0
0
VERTEX
8
0
10
1210
20
1170
30
0
0
SEQEND
0
POLYLINE
8
0
66
1
70
1
10
0
20
0
30
0
0
VERTEX
8
0
10
1210
20
1170
30
0
0
VERTEX
8
0
10
1210
20
1180
30
0
0
VERTEX
8
0
10
1220
20
1180
30
0
0
VERTEX
8
0
10
1220
20
1170
30
0
0
SEQEND
0
POLYLINE
8
0
66
1
70
1
10
0
20
0
30
0
0
VERTEX
8
0
10
1230
20
1170
30
0
0
VERTEX
8
0
10
1230
20
1180
30
0
0
VERTEX
8
0
10
1240
20
1180
30
0
0
VERTEX
8
0
10
1240
20
1170
30
0
0
SEQEND
0
POLYLINE
8
0
66
1
70
1
10
0
20
0
30
0
0
VERTEX
8
0
10
1240
20
1170
30
0
0
VERTEX
8
0
10
1240
20
1180
30
0
0
VERTEX
8
0
10
1250
20
1180
30
0
0
VERTEX
8
0
10
1250
20
1170
30
0
0
SEQEND
0
POLYLINE
8
0
66
1
70
1
10
0
20
0
30
0
0
VERTEX
8
0
10
1090
20
1180
30
0
0
VERTEX
8
0
10
1090
20
1190
30
0
0
VERTEX
8
0
10
1100
20
1190
30
0
0
VERTEX
8
0
10
1100
20
1180
30
0
0
SEQEND
0
POLYLINE
8
0
66
1
70
1
10
0
20
0
30
0
0
VERTEX
8
0
10
1110
20
1180
30
0
0
VERTEX
8
0
10
1110
20
1190
30
0
0
VERTEX
8
0
10
1120
20
1190
30
0
0
VERTEX
8
0
10
1120
20
1180
30
0
0
SEQEND
0
POLYLINE
8
0
66
1
70
1
10
0
20
0
30
0
0
VERTEX
8
0
10
1120
20
1180
30
0
0
VERTEX
8
0
10
1120
20
1190
30
0
0
VERTEX
8
0
10
1130
20
1190
30
0
0
VERTEX
8
0
10
1130
20
1180
30
0
0
SEQEND
0
POLYLINE
8
0
66
1
70
1
10
0
20
0
30
0
0
VERTEX
8
0
10
1130
20
1180
30
0
0
VERTEX
8
0
10
1130
20
1190
30
0
0
VERTEX
8
0
10
1140
20
1190
30
0
0
VERTEX
8
0
10
1140
20
1180
30
0
0
SEQEND
0
POLYLINE
8
0
66
1
70
1
10
0
20
0
30
0
0
VERTEX
8
0
10
1140
20
1180
30
0
0
VERTEX
8
0
10
1140
20
1190
30
0
0
VERTEX
8
0
10
1150
20
1190
30
0
0
VERTEX
8
0
10
1150
20
1180
30
0
0
SEQEND
0
POLYLINE
8
0
66
1
70
1
10
0
20
0
30
0
0
VERTEX
8
0
10
1150
20
1180
30
0
0
VERTEX
8
0
10
1150
20
1190
30
0
0
VERTEX
8
0
10
1160
20
1190
30
0
0
VERTEX
8
0
10
1160
20
1180
30
0
0
SEQEND
0
POLYLINE
8
0
66
1
70
1
10
0
20
0
30
0
0
VERTEX
8
0
10
1170
20
1180
30
0
0
VERTEX
8
0
10
1170
20
1190
30
0
0
VERTEX
8
0
10
1180
20
1190
30
0
0
VERTEX
8
0
10
1180
20
1180
30
0
0
SEQEND
0
POLYLINE
8
0
66
1
70
1
10
0
20
0
30
0
0
VERTEX
8
0
10
1210
20
1180
30
0
0
VERTEX
8
0
10
1210
20
1190
30
0
0
VERTEX
8
0
10
1220
20
1190
30
0
0
VERTEX
8
0
10
1220
20
1180
30
0
0
SEQEND
0
POLYLINE
8
0
66
1
70
1
10
0
20
0
30
0
0
VERTEX
8
0
10
1230
20
1180
30
0
0
VERTEX
8
0
10
1230
20
1190
30
0
0
VERTEX
8
0
10
1240
20
1190
30
0
0
VERTEX
8
0
10
1240
20
1180
30
0
0
SEQEND
0
POLYLINE
8
0
66
1
70
1
10
0
20
0
30
0
0
VERTEX
8
0
10
1240
20
1180
30
0
0
VERTEX
8
0
10
1240
20
1190
30
0
0
VERTEX
8
0
10
1250
20
1190
30
0
0
VERTEX
8
0
10
1250
20
1180
30
0
0
SEQEND
0
POLYLINE
8
0
66
1
70
1
10
0
20
0
30
0
0
VERTEX
8
0
10
1010
20
1190
30
0
0
VERTEX
8
0
10
1010
20
1200
30
0
0
VERTEX
8
0
10
1020
20
1200
30
0
0
VERTEX
8
0
10
1020
20
1190
30
0
0
SEQEND
0
POLYLINE
8
0
66
1
70
1
10
0
20
0
30
0
0
VERTEX
8
0
10
1020
20
1190
30
0
0
VERTEX
8
0
10
1020
20
1200
30
0
0
VERTEX
8
0
10
1030
20
1200
30
0
0
VERTEX
8
0
10
1030
20
1190
30
0
0
SEQEND
0
POLYLINE
8
0
66
1
70
1
10
0
20
0
30
0
0
VERTEX
8
0
10
1030
20
1190
30
0
0
VERTEX
8
0
10
1030
20
1200
30
0
0
VERTEX
8
0
10
1040
20
1200
30
0
0
VERTEX
8
0
10
1040
20
1190
30
0
0
SEQEND
0
POLYLINE
8
0
66
1
70
1
10
0
20
0
30
0
0
VERTEX
8
0
10
1040
20
1190
30
0
0
VERTEX
8
0
10
1040
20
1200
30
0
0
VERTEX
8
0
10
1050
20
1200
30
0
0
VERTEX
8
0
10
1050
20
1190
30
0
0
SEQEND
0
POLYLINE
8
0
66
1
70
1
10
0
20
0
30
0
0
VERTEX
8
0
10
1050
20
1190
30
0
0
VERTEX
8
0
10
1050
20
1200
30
0
0
VERTEX
8
0
10
1060
20
1200
30
0
0
VERTEX
8
0
10
1060
20
1190
30
0
0
SEQEND
0
POLYLINE
8
0
66
1
70
1
10
0
20
0
30
0
0
VERTEX
8
0
10
1060
20
1190
30
0
0
VERTEX
8
0
10
1060
20
1200
30
0
0
VERTEX
8
0
10
1070
20
1200
30
0
0
VERTEX
8
0
10
1070
20
1190
30
0
0
SEQEND
0
POLYLINE
8
0
66
1
70
1
10
0
20
0
30
0
0
VERTEX
8
0
10
1070
20
1190
30
0
0
VERTEX
8
0
10
1070
20
1200
30
0
0
VERTEX
8
0
10
1080
20
1200
30
0
0
VERTEX
8
0
10
1080
20
1190
30
0
0
SEQEND
0
POLYLINE
8
0
66
1
70
1
10
0
20
0
30
0
0
VERTEX
8
0
10
1120
20
1190
30
0
0
VERTEX
8
0
10
1120
20
1200
30
0
0
VERTEX
8
0
10
1130
20
1200
30
0
0
VERTEX
8
0
10
1130
20
1190
30
0
0
SEQEND
0
POLYLINE
8
0
66
1
70
1
10
0
20
0
30
0
0
VERTEX
8
0
10
1170
20
1190
30
0
0
VERTEX
8
0
10
1170
20
1200
30
0
0
VERTEX
8
0
10
1180
20
1200
30
0
0
VERTEX
8
0
10
1180
20
1190
30
0
0
SEQEND
0
POLYLINE
8
0
66
1
70
1
10
0
20
0
30
0
0
VERTEX
8
0
10
1190
20
1190
30
0
0
VERTEX
8
0
10
1190
20
1200
30
0
0
VERTEX
8
0
10
1200
20
1200
30
0
0
VERTEX
8
0
10
1200
20
1190
30
0
0
SEQEND
0
POLYLINE
8
0
66
1
70
1
10
0
20
0
30
0
0
VERTEX
8
0
10
1210
20
1190
30
0
0
VERTEX
8
0
10
1210
20
1200
30
0
0
VERTEX
8
0
10
1220
20
1200
30
0
0
VERTEX
8
0
10
1220
20
1190
30
0
0
SEQEND
0
POLYLINE
8
0
66
1
70
1
10
0
20
0
30
0
0
VERTEX
8
0
10
1250
20
1190
30
0
0
VERTEX
8
0
10
1250
20
1200
30
0
0
VERTEX
8
0
10
1260
20
1200
30
0
0
VERTEX
8
0
10
1260
20
1190
30
0
0
SEQEND
0
POLYLINE
8
0
66
1
70
1
10
0
20
0
30
0
0
VERTEX
8
0
10
1010
20
1200
30
0
0
VERTEX
8
0
10
1010
20
1210
30
0
0
VERTEX
8
0
10
1020
20
1210
30
0
0
VERTEX
8
0
10
1020
20
1200
30
0
0
SEQEND
0
POLYLINE
8
0
66
1
70
1
10
0
20
0
30
0
0
VERTEX
8
0
10
1070
20
1200
30
0
0
VERTEX
8
0
10
1070
20
1210
30
0
0
VERTEX
8
0
10
1080
20
1210
30
0
0
VERTEX
8
0
10
1080
20
1200
30
0
0
SEQEND
0
POLYLINE
8
0
66
1
70
1
10
0
20
0
30
0
0
VERTEX
8
0
10
1100
20
1200
30
0
0
VERTEX
8
0
10
1100
20
1210
30
0
0
VERTEX
8
0
10
1110
20
1210
30
0
0
VERTEX
8
0
10
1110
20
1200
30
0
0
SEQEND
0
POLYLINE
8
0
66
1
70
1
10
0
20
0
30
0
0
VERTEX
8
0
10
1110
20
1200
30
0
0
VERTEX
8
0
10
1110
20
1210
30
0
0
VERTEX
8
0
10
1120
20
1210
30
0
0
VERTEX
8
0
10
1120
20
1200
30
0
0
SEQEND
0
POLYLINE
8
0
66
1
70
1
10
0
20
0
30
0
0
VERTEX
8
0
10
1130
20
1200
30
0
0
VERTEX
8
0
10
1130
20
1210
30
0
0
VERTEX
8
0
10
1140
20
1210
30
0
0
VERTEX
8
0
10
1140
20
1200
30
0
0
SEQEND
0
POLYLINE
8
0
66
1
70
1
10
0
20
0
30
0
0
VERTEX
8
0
10
1150
20
1200
30
0
0
VERTEX
8
0
10
1150
20
1210
30
0
0
VERTEX
8
0
10
1160
20
1210
30
0
0
VERTEX
8
0
10
1160
20
1200
30
0
0
SEQEND
0
POLYLINE
8
0
66
1
70
1
10
0
20
0
30
0
0
VERTEX
8
0
10
1160
20
1200
30
0
0
VERTEX
8
0
10
1160
20
1210
30
0
0
VERTEX
8
0
10
1170
20
1210
30
0
0
VERTEX
8
0
10
1170
20
1200
30
0
0
SEQEND
0
POLYLINE
8
0
66
1
70
1
10
0
20
0
30
0
0
VERTEX
8
0
10
1170
20
1200
30
0
0
VERTEX
8
0
10
1170
20
1210
30
0
0
VERTEX
8
0
10
1180
20
1210
30
0
0
VERTEX
8
0
10
1180
20
1200
30
0
0
SEQEND
0
POLYLINE
8
0
66
1
70
1
10
0
20
0
30
0
0
VERTEX
8
0
10
1210
20
1200
30
0
0
VERTEX
8
0
10
1210
20
1210
30
0
0
VERTEX
8
0
10
1220
20
1210
30
0
0
VERTEX
8
0
10
1220
20
1200
30
0
0
SEQEND
0
POLYLINE
8
0
66
1
70
1
10
0
20
0
30
0
0
VERTEX
8
0
10
1240
20
1200
30
0
0
VERTEX
8
0
10
1240
20
1210
30
0
0
VERTEX
8
0
10
1250
20
1210
30
0
0
VERTEX
8
0
10
1250
20
1200
30
0
0
SEQEND
0
POLYLINE
8
0
66
1
70
1
10
0
20
0
30
0
0
VERTEX
8
0
10
1010
20
1210
30
0
0
VERTEX
8
0
10
1010
20
1220
30
0
0
VERTEX
8
0
10
1020
20
1220
30
0
0
VERTEX
8
0
10
1020
20
1210
30
0
0
SEQEND
0
POLYLINE
8
0
66
1
70
1
10
0
20
0
30
0
0
VERTEX
8
0
10
1030
20
1210
30
0
0
VERTEX
8
0
10
1030
20
1220
30
0
0
VERTEX
8
0
10
1040
20
1220
30
0
0
VERTEX
8
0
10
1040
20
1210
30
0
0
SEQEND
0
POLYLINE
8
0
66
1
70
1
10
0
20
0
30
0
0
VERTEX
8
0
10
1040
20
1210
30
0
0
VERTEX
8
0
10
1040
20
1220
30
0
0
VERTEX
8
0
10
1050
20
1220
30
0
0
VERTEX
8
0
10
1050
20
1210
30
0
0
SEQEND
0
POLYLINE
8
0
66
1
70
1
10
0
20
0
30
0
0
VERTEX
8
0
10
1050
20
1210
30
0
0
VERTEX
8
0
10
1050
20
1220
30
0
0
VERTEX
8
0
10
1060
20
1220
30
0
0
VERTEX
8
0
10
1060
20
1210
30
0
0
SEQEND
0
POLYLINE
8
0
66
1
70
1
10
0
20
0
30
0
0
VERTEX
8
0
10
1070
20
1210
30
0
0
VERTEX
8
0
10
1070
20
1220
30
0
0
VERTEX
8
0
10
1080
20
1220
30
0
0
VERTEX
8
0
10
1080
20
1210
30
0
0
SEQEND
0
POLYLINE
8
0
66
1
70
1
10
0
20
0
30
0
0
VERTEX
8
0
10
1090
20
1210
30
0
0
VERTEX
8
0
10
1090
20
1220
30
0
0
VERTEX
8
0
10
1100
20
1220
30
0
0
VERTEX
8
0
10
1100
20
1210
30
0
0
SEQEND
0
POLYLINE
8
0
66
1
70
1
10
0
20
0
30
0
0
VERTEX
8
0
10
1100
20
1210
30
0
0
VERTEX
8
0
10
1100
20
1220
30
0
0
VERTEX
8
0
10
1110
20
1220
30
0
0
VERTEX
8
0
10
1110
20
1210
30
0
0
SEQEND
0
POLYLINE
8
0
66
1
70
1
10
0
20
0
30
0
0
VERTEX
8
0
10
1130
20
1210
30
0
0
VERTEX
8
0
10
1130
20
1220
30
0
0
VERTEX
8
0
10
1140
20
1220
30
0
0
VERTEX
8
0
10
1140
20
1210
30
0
0
SEQEND
0
POLYLINE
8
0
66
1
70
1
10
0
20
0
30
0
0
VERTEX
8
0
10
1140
20
1210
30
0
0
VERTEX
8
0
10
1140
20
1220
30
0
0
VERTEX
8
0
10
1150
20
1220
30
0
0
VERTEX
8
0
10
1150
20
1210
30
0
0
SEQEND
0
POLYLINE
8
0
66
1
70
1
10
0
20
0
30
0
0
VERTEX
8
0
10
1150
20
1210
30
0
0
VERTEX
8
0
10
1150
20
1220
30
0
0
VERTEX
8
0
10
1160
20
1220
30
0
0
VERTEX
8
0
10
1160
20
1210
30
0
0
SEQEND
0
POLYLINE
8
0
66
1
70
1
10
0
20
0
30
0
0
VERTEX
8
0
10
1160
20
1210
30
0
0
VERTEX
8
0
10
1160
20
1220
30
0
0
VERTEX
8
0
10
1170
20
1220
30
0
0
VERTEX
8
0
10
1170
20
1210
30
0
0
SEQEND
0
POLYLINE
8
0
66
1
70
1
10
0
20
0
30
0
0
VERTEX
8
0
10
1170
20
1210
30
0
0
VERTEX
8
0
10
1170
20
1220
30
0
0
VERTEX
8
0
10
1180
20
1220
30
0
0
VERTEX
8
0
10
1180
20
1210
30
0
0
SEQEND
0
POLYLINE
8
0
66
1
70
1
10
0
20
0
30
0
0
VERTEX
8
0
10
1180
20
1210
30
0
0
VERTEX
8
0
10
1180
20
1220
30
0
0
VERTEX
8
0
10
1190
20
1220
30
0
0
VERTEX
8
0
10
1190
20
1210
30
0
0
SEQEND
0
POLYLINE
8
0
66
1
70
1
10
0
20
0
30
0
0
VERTEX
8
0
10
1190
20
1210
30
0
0
VERTEX
8
0
10
1190
20
1220
30
0
0
VERTEX
8
0
10
1200
20
1220
30
0
0
VERTEX
8
0
10
1200
20
1210
30
0
0
SEQEND
0
POLYLINE
8
0
66
1
70
1
10
0
20
0
30
0
0
VERTEX
8
0
10
1200
20
1210
30
0
0
VERTEX
8
0
10
1200
20
1220
30
0
0
VERTEX
8
0
10
1210
20
1220
30
0
0
VERTEX
8
0
10
1210
20
1210
30
0
0
SEQEND
0
POLYLINE
8
0
66
1
70
1
10
0
20
0
30
0
0
VERTEX
8
0
10
1210
20
1210
30
0
0
VERTEX
8
0
10
1210
20
1220
30
0
0
VERTEX
8
0
10
1220
20
1220
30
0
0
VERTEX
8
0
10
1220
20
1210
30
0
0
SEQEND
0
POLYLINE
8
0
66
1
70
1
10
0
20
0
30
0
0
VERTEX
8
0
10
1250
20
1210
30
0
0
VERTEX
8
0
10
1250
20
1220
30
0
0
VERTEX
8
0
10
1260
20
1220
30
0
0
VERTEX
8
0
10
1260
20
1210
30
0
0
SEQEND
0
POLYLINE
8
0
66
1
70
1
10
0
20
0
30
0
0
VERTEX
8
0
10
1010
20
1220
30
0
0
VERTEX
8
0
10
1010
20
1230
30
0
0
VERTEX
8
0
10
1020
20
1230
30
0
0
VERTEX
8
0
10
1020
20
1220
30
0
0
SEQEND
0
POLYLINE
8
0
66
1
70
1
10
0
20
0
30
0
0
VERTEX
8
0
10
1030
20
1220
30
0
0
VERTEX
8
0
10
1030
20
1230
30
0
0
VERTEX
8
0
10
1040
20
1230
30
0
0
VERTEX
8
0
10
1040
20
1220
30
0
0
SEQEND
0
POLYLINE
8
0
66
1
70
1
10
0
20
0
30
0
0
VERTEX
8
0
10
1040
20
1220
30
0
0
VERTEX
8
0
10
1040
20
1230
30
0
0
VERTEX
8
0
10
1050
20
1230
30
0
0
VERTEX
8
0
10
1050
20
1220
30
0
0
SEQEND
0
POLYLINE
8
0
66
1
70
1
10
0
20
0
30
0
0
VERTEX
8
0
10
1050
20
1220
30
0
0
VERTEX
8
0
10
1050
20
1230
30
0
0
VERTEX
8
0
10
1060
20
1230
30
0
0
VERTEX
8
0
10
1060
20
1220
30
0
0
SEQEND
0
POLYLINE
8
0
66
1
70
1
10
0
20
0
30
0
0
VERTEX
8
0
10
1070
20
1220
30
0
0
VERTEX
8
0
10
1070
20
1230
30
0
0
VERTEX
8
0
10
1080
20
1230
30
0
0
VERTEX
8
0
10
1080
20
1220
30
0
0
SEQEND
0
POLYLINE
8
0
66
1
70
1
10
0
20
0
30
0
0
VERTEX
8
0
10
1090
20
1220
30
0
0
VERTEX
8
0
10
1090
20
1230
30
0
0
VERTEX
8
0
10
1100
20
1230
30
0
0
VERTEX
8
0
10
1100
20
1220
30
0
0
SEQEND
0
POLYLINE
8
0
66
1
70
1
10
0
20
0
30
0
0
VERTEX
8
0
10
1110
20
1220
30
0
0
VERTEX
8
0
10
1110
20
1230
30
0
0
VERTEX
8
0
10
1120
20
1230
30
0
0
VERTEX
8
0
10
1120
20
1220
30
0
0
SEQEND
0
POLYLINE
8
0
66
1
70
1
10
0
20
0
30
0
0
VERTEX
8
0
10
1150
20
1220
30
0
0
VERTEX
8
0
10
1150
20
1230
30
0
0
VERTEX
8
0
10
1160
20
1230
30
0
0
VERTEX
8
0
10
1160
20
1220
30
0
0
SEQEND
0
POLYLINE
8
0
66
1
70
1
10
0
20
0
30
0
0
VERTEX
8
0
10
1170
20
1220
30
0
0
VERTEX
8
0
10
1170
20
1230
30
0
0
VERTEX
8
0
10
1180
20
1230
30
0
0
VERTEX
8
0
10
1180
20
1220
30
0
0
SEQEND
0
POLYLINE
8
0
66
1
70
1
10
0
20
0
30
0
0
VERTEX
8
0
10
1180
20
1220
30
0
0
VERTEX
8
0
10
1180
20
1230
30
0
0
VERTEX
8
0
10
1190
20
1230
30
0
0
VERTEX
8
0
10
1190
20
1220
30
0
0
SEQEND
0
POLYLINE
8
0
66
1
70
1
10
0
20
0
30
0
0
VERTEX
8
0
10
1190
20
1220
30
0
0
VERTEX
8
0
10
1190
20
1230
30
0
0
VERTEX
8
0
10
1200
20
1230
30
0
0
VERTEX
8
0
10
1200
20
1220
30
0
0
SEQEND
0
POLYLINE
8
0
66
1
70
1
10
0
20
0
30
0
0
VERTEX
8
0
10
1240
20
1220
30
0
0
VERTEX
8
0
10
1240
20
1230
30
0
0
VERTEX
8
0
10
1250
20
1230
30
0
0
VERTEX
8
0
10
1250
20
1220
30
0
0
SEQEND
0
POLYLINE
8
0
66
1
70
1
10
0
20
0
30
0
0
VERTEX
8
0
10
1250
20
1220
30
0
0
VERTEX
8
0
10
1250
20
1230
30
0
0
VERTEX
8
0
10
1260
20
1230
30
0
0
VERTEX
8
0
10
1260
20
1220
30
0
0
SEQEND
0
POLYLINE
8
0
66
1
70
1
10
0
20
0
30
0
0
VERTEX
8
0
10
1010
20
1230
30
0
0
VERTEX
8
0
10
1010
20
1240
30
0
0
VERTEX
8
0
10
1020
20
1240
30
0
0
VERTEX
8
0
10
1020
20
1230
30
0
0
SEQEND
0
POLYLINE
8
0
66
1
70
1
10
0
20
0
30
0
0
VERTEX
8
0
10
1030
20
1230
30
0
0
VERTEX
8
0
10
1030
20
1240
30
0
0
VERTEX
8
0
10
1040
20
1240
30
0
0
VERTEX
8
0
10
1040
20
1230
30
0
0
SEQEND
0
POLYLINE
8
0
66
1
70
1
10
0
20
0
30
0
0
VERTEX
8
0
10
1040
20
1230
30
0
0
VERTEX
8
0
10
1040
20
1240
30
0
0
VERTEX
8
0
10
1050
20
1240
30
0
0
VERTEX
8
0
10
1050
20
1230
30
0
0
SEQEND
0
POLYLINE
8
0
66
1
70
1
10
0
20
0
30
0
0
VERTEX
8
0
10
1050
20
1230
30
0
0
VERTEX
8
0
10
1050
20
1240
30
0
0
VERTEX
8
0
10
1060
20
1240
30
0
0
VERTEX
8
0
10
1060
20
1230
30
0
0
SEQEND
0
POLYLINE
8
0
66
1
70
1
10
0
20
0
30
0
0
VERTEX
8
0
10
1070
20
1230
30
0
0
VERTEX
8
0
10
1070
20
1240
30
0
0
VERTEX
8
0
10
1080
20
1240
30
0
0
VERTEX
8
0
10
1080
20
1230
30
0
0
SEQEND
0
POLYLINE
8
0
66
1
70
1
10
0
20
0
30
0
0
VERTEX
8
0
10
1100
20
1230
30
0
0
VERTEX
8
0
10
1100
20
1240
30
0
0
VERTEX
8
0
10
1110
20
1240
30
0
0
VERTEX
8
0
10
1110
20
1230
30
0
0
SEQEND
0
POLYLINE
8
0
66
1
70
1
10
0
20
0
30
0
0
VERTEX
8
0
10
1130
20
1230
30
0
0
VERTEX
8
0
10
1130
20
1240
30
0
0
VERTEX
8
0
10
1140
20
1240
30
0
0
VERTEX
8
0
10
1140
20
1230
30
0
0
SEQEND
0
POLYLINE
8
0
66
1
70
1
10
0
20
0
30
0
0
VERTEX
8
0
10
1150
20
1230
30
0
0
VERTEX
8
0
10
1150
20
1240
30
0
0
VERTEX
8
0
10
1160
20
1240
30
0
0
VERTEX
8
0
10
1160
20
1230
30
0
0
SEQEND
0
POLYLINE
8
0
66
1
70
1
10
0
20
0
30
0
0
VERTEX
8
0
10
1160
20
1230
30
0
0
VERTEX
8
0
10
1160
20
1240
30
0
0
VERTEX
8
0
10
1170
20
1240
30
0
0
VERTEX
8
0
10
1170
20
1230
30
0
0
SEQEND
0
POLYLINE
8
0
66
1
70
1
10
0
20
0
30
0
0
VERTEX
8
0
10
1180
20
1230
30
0
0
VERTEX
8
0
10
1180
20
1240
30
0
0
VERTEX
8
0
10
1190
20
1240
30
0
0
VERTEX
8
0
10
1190
20
1230
30
0
0
SEQEND
0
POLYLINE
8
0
66
1
70
1
10
0
20
0
30
0
0
VERTEX
8
0
10
1210
20
1230
30
0
0
VERTEX
8
0
10
1210
20
1240
30
0
0
VERTEX
8
0
10
1220
20
1240
30
0
0
VERTEX
8
0
10
1220
20
1230
30
0
0
SEQEND
0
POLYLINE
8
0
66
1
70
1
10
0
20
0
30
0
0
VERTEX
8
0
10
1220
20
1230
30
0
0
VERTEX
8
0
10
1220
20
1240
30
0
0
VERTEX
8
0
10
1230
20
1240
30
0
0
VERTEX
8
0
10
1230
20
1230
30
0
0
SEQEND
0
POLYLINE
8
0
66
1
70
1
10
0
20
0
30
0
0
VERTEX
8
0
10
1230
20
1230
30
0
0
VERTEX
8
0
10
1230
20
1240
30
0
0
VERTEX
8
0
10
1240
20
1240
30
0
0
VERTEX
8
0
10
1240
20
1230
30
0
0
SEQEND
0
POLYLINE
8
0
66
1
70
1
10
0
20
0
30
0
0
VERTEX
8
0
10
1240
20
1230
30
0
0
VERTEX
8
0
10
1240
20
1240
30
0
0
VERTEX
8
0
10
1250
20
1240
30
0
0
VERTEX
8
0
10
1250
20
1230
30
0
0
SEQEND
0
POLYLINE
8
0
66
1
70
1
10
0
20
0
30
0
0
VERTEX
8
0
10
1250
20
1230
30
0
0
VERTEX
8
0
10
1250
20
1240
30
0
0
VERTEX
8
0
10
1260
20
1240
30
0
0
VERTEX
8
0
10
1260
20
1230
30
0
0
SEQEND
0
POLYLINE
8
0
66
1
70
1
10
0
20
0
30
0
0
VERTEX
8
0
10
1010
20
1240
30
0
0
VERTEX
8
0
10
1010
20
1250
30
0
0
VERTEX
8
0
10
1020
20
1250
30
0
0
VERTEX
8
0
10
1020
20
1240
30
0
0
SEQEND
0
POLYLINE
8
0
66
1
70
1
10
0
20
0
30
0
0
VERTEX
8
0
10
1070
20
1240
30
0
0
VERTEX
8
0
10
1070
20
1250
30
0
0
VERTEX
8
0
10
1080
20
1250
30
0
0
VERTEX
8
0
10
1080
20
1240
30
0
0
SEQEND
0
POLYLINE
8
0
66
1
70
1
10
0
20
0
30
0
0
VERTEX
8
0
10
1090
20
1240
30
0
0
VERTEX
8
0
10
1090
20
1250
30
0
0
VERTEX
8
0
10
1100
20
1250
30
0
0
VERTEX
8
0
10
1100
20
1240
30
0
0
SEQEND
0
POLYLINE
8
0
66
1
70
1
10
0
20
0
30
0
0
VERTEX
8
0
10
1100
20
1240
30
0
0
VERTEX
8
0
10
1100
20
1250
30
0
0
VERTEX
8
0
10
1110
20
1250
30
0
0
VERTEX
8
0
10
1110
20
1240
30
0
0
SEQEND
0
POLYLINE
8
0
66
1
70
1
10
0
20
0
30
0
0
VERTEX
8
0
10
1110
20
1240
30
0
0
VERTEX
8
0
10
1110
20
1250
30
0
0
VERTEX
8
0
10
1120
20
1250
30
0
0
VERTEX
8
0
10
1120
20
1240
30
0
0
SEQEND
0
POLYLINE
8
0
66
1
70
1
10
0
20
0
30
0
0
VERTEX
8
0
10
1150
20
1240
30
0
0
VERTEX
8
0
10
1150
20
1250
30
0
0
VERTEX
8
0
10
1160
20
1250
30
0
0
VERTEX
8
0
10
1160
20
1240
30
0
0
SEQEND
0
POLYLINE
8
0
66
1
70
1
10
0
20
0
30
0
0
VERTEX
8
0
10
1160
20
1240
30
0
0
VERTEX
8
0
10
1160
20
1250
30
0
0
VERTEX
8
0
10
1170
20
1250
30
0
0
VERTEX
8
0
10
1170
20
1240
30
0
0
SEQEND
0
POLYLINE
8
0
66
1
70
1
10
0
20
0
30
0
0
VERTEX
8
0
10
1200
20
1240
30
0
0
VERTEX
8
0
10
1200
20
1250
30
0
0
VERTEX
8
0
10
1210
20
1250
30
0
0
VERTEX
8
0
10
1210
20
1240
30
0
0
SEQEND
0
POLYLINE
8
0
66
1
70
1
10
0
20
0
30
0
0
VERTEX
8
0
10
1210
20
1240
30
0
0
VERTEX
8
0
10
1210
20
1250
30
0
0
VERTEX
8
0
10
1220
20
1250
30
0
0
VERTEX
8
0
10
1220
20
1240
30
0
0
SEQEND
0
POLYLINE
8
0
66
1
70
1
10
0
20
0
30
0
0
VERTEX
8
0
10
1230
20
1240
30
0
0
VERTEX
8
0
10
1230
20
1250
30
0
0
VERTEX
8
0
10
1240
20
1250
30
0
0
VERTEX
8
0
10
1240
20
1240
30
0
0
SEQEND
0
POLYLINE
8
0
66
1
70
1
10
0
20
0
30
0
0
VERTEX
8
0
10
1240
20
1240
30
0
0
VERTEX
8
0
10
1240
20
1250
30
0
0
VERTEX
8
0
10
1250
20
1250
30
0
0
VERTEX
8
0
10
1250
20
1240
30
0
0
SEQEND
0
POLYLINE
8
0
66
1
70
1
10
0
20
0
30
0
0
VERTEX
8
0
10
1250
20
1240
30
0
0
VERTEX
8
0
10
1250
20
1250
30
0
0
VERTEX
8
0
10
1260
20
1250
30
0
0
VERTEX
8
0
10
1260
20
1240
30
0
0
SEQEND
0
POLYLINE
8
0
66
1
70
1
10
0
20
0
30
0
0
VERTEX
8
0
10
1010
20
1250
30
0
0
VERTEX
8
0
10
1010
20
1260
30
0
0
VERTEX
8
0
10
1020
20
1260
30
0
0
VERTEX
8
0
10
1020
20
1250
30
0
0
SEQEND
0
POLYLINE
8
0
66
1
70
1
10
0
20
0
30
0
0
VERTEX
8
0
10
1020
20
1250
30
0
0
VERTEX
8
0
10
1020
20
1260
30
0
0
VERTEX
8
0
10
1030
20
1260
30
0
0
VERTEX
8
0
10
1030
20
1250
30
0
0
SEQEND
0
POLYLINE
8
0
66
1
70
1
10
0
20
0
30
0
0
VERTEX
8
0
10
1030
20
1250
30
0
0
VERTEX
8
0
10
1030
20
1260
30
0
0
VERTEX
8
0
10
1040
20
1260
30
0
0
VERTEX
8
0
10
1040
20
1250
30
0
0
SEQEND
0
POLYLINE
8
0
66
1
70
1
10
0
20
0
30
0
0
VERTEX
8
0
10
1040
20
1250
30
0
0
VERTEX
8
0
10
1040
20
1260
30
0
0
VERTEX
8
0
10
1050
20
1260
30
0
0
VERTEX
8
0
10
1050
20
1250
30
0
0
SEQEND
0
POLYLINE
8
0
66
1
70
1
10
0
20
0
30
0
0
VERTEX
8
0
10
1050
20
1250
30
0
0
VERTEX
8
0
10
1050
20
1260
30
0
0
VERTEX
8
0
10
1060
20
1260
30
0
0
VERTEX
8
0
10
1060
20
1250
30
0
0
SEQEND
0
POLYLINE
8
0
66
1
70
1
10
0
20
0
30
0
0
VERTEX
8
0
10
1060
20
1250
30
0
0
VERTEX
8
0
10
1060
20
1260
30
0
0
VERTEX
8
0
10
1070
20
1260
30
0
0
VERTEX
8
0
10
1070
20
1250
30
0
0
SEQEND
0
POLYLINE
8
0
66
1
70
1
10
0
20
0
30
0
0
VERTEX
8
0
10
1070
20
1250
30
0
0
VERTEX
8
0
10
1070
20
1260
30
0
0
VERTEX
8
0
10
1080
20
1260
30
0
0
VERTEX
8
0
10
1080
20
1250
30
0
0
SEQEND
0
POLYLINE
8
0
66
1
70
1
10
0
20
0
30
0
0
VERTEX
8
0
10
1090
20
1250
30
0
0
VERTEX
8
0
10
1090
20
1260
30
0
0
VERTEX
8
0
10
1100
20
1260
30
0
0
VERTEX
8
0
10
1100
20
1250
30
0
0
SEQEND
0
POLYLINE
8
0
66
1
70
1
10
0
20
0
30
0
0
VERTEX
8
0
10
1110
20
1250
30
0
0
VERTEX
8
0
10
1110
20
1260
30
0
0
VERTEX
8
0
10
1120
20
1260
30
0
0
VERTEX
8
0
10
1120
20
1250
30
0
0
SEQEND
0
POLYLINE
8
0
66
1
70
1
10
0
20
0
30
0
0
VERTEX
8
0
10
1140
20
1250
30
0
0
VERTEX
8
0
10
1140
20
1260
30
0
0
VERTEX
8
0
10
1150
20
1260
30
0
0
VERTEX
8
0
10
1150
20
1250
30
0
0
SEQEND
0
POLYLINE
8
0
66
1
70
1
10
0
20
0
30
0
0
VERTEX
8
0
10
1150
20
1250
30
0
0
VERTEX
8
0
10
1150
20
1260
30
0
0
VERTEX
8
0
10
1160
20
1260
30
0
0
VERTEX
8
0
10
1160
20
1250
30
0
0
SEQEND
0
POLYLINE
8
0
66
1
70
1
10
0
20
0
30
0
0
VERTEX
8
0
10
1170
20
1250
30
0
0
VERTEX
8
0
10
1170
20
1260
30
0
0
VERTEX
8
0
10
1180
20
1260
30
0
0
VERTEX
8
0
10
1180
20
1250
30
0
0
SEQEND
0
POLYLINE
8
0
66
1
70
1
10
0
20
0
30
0
0
VERTEX
8
0
10
1190
20
1250
30
0
0
VERTEX
8
0
10
1190
20
1260
30
0
0
VERTEX
8
0
10
1200
20
1260
30
0
0
VERTEX
8
0
10
1200
20
1250
30
0
0
SEQEND
0
POLYLINE
8
0
66
1
70
1
10
0
20
0
30
0
0
VERTEX
8
0
10
1220
20
1250
30
0
0
VERTEX
8
0
10
1220
20
1260
30
0
0
VERTEX
8
0
10
1230
20
1260
30
0
0
VERTEX
8
0
10
1230
20
1250
30
0
0
SEQEND
0
POLYLINE
8
0
66
1
70
1
10
0
20
0
30
0
0
VERTEX
8
0
10
1250
20
1250
30
0
0
VERTEX
8
0
10
1250
20
1260
30
0
0
VERTEX
8
0
10
1260
20
1260
30
0
0
VERTEX
8
0
10
1260
20
1250
30
0
0
SEQEND
0
ENDSEC
0
EOF
